<svg width="521" height="299" viewBox="0 0 521 299" fill="none" xmlns="http://www.w3.org/2000/svg">
<path opacity="0.3" d="M545.678 107.692H499.872V197.113H545.678V107.692Z" fill="#7945DC"/>
<path opacity="0.2" d="M173.235 76.0737H100.753V199.068H173.235V76.0737Z" fill="#7945DC"/>
<path opacity="0.2" d="M416.172 191.599H313.04V62.7769H416.173V191.599H416.172ZM319.38 185.763H409.832V68.6119H319.38V185.763Z" fill="#7945DC"/>
<path opacity="0.2" d="M148.839 84.6118H76.1929V134.567H148.839V84.6118Z" fill="#7945DC"/>
<path opacity="0.3" d="M335.635 95.9978H192.06V144.355H335.635V95.9978Z" fill="#7945DC"/>
<path opacity="0.2" d="M424.833 55.0317H361.45V76.3797H424.833V55.0317Z" fill="#7945DC"/>
<path opacity="0.3" d="M434.852 87.0107C438.599 87.0107 441.637 83.9729 441.637 80.2257C441.637 76.4784 438.599 73.4407 434.852 73.4407C431.105 73.4407 428.067 76.4784 428.067 80.2257C428.067 83.9729 431.105 87.0107 434.852 87.0107Z" fill="#7945DC"/>
<path opacity="0.3" d="M434.852 110.475C438.599 110.475 441.637 107.437 441.637 103.69C441.637 99.9425 438.599 96.9048 434.852 96.9048C431.105 96.9048 428.067 99.9425 428.067 103.69C428.067 107.437 431.105 110.475 434.852 110.475Z" fill="#7945DC"/>
<path opacity="0.3" d="M434.852 133.939C438.599 133.939 441.637 130.901 441.637 127.154C441.637 123.406 438.599 120.369 434.852 120.369C431.105 120.369 428.067 123.406 428.067 127.154C428.067 130.901 431.105 133.939 434.852 133.939Z" fill="#7945DC"/>
<path opacity="0.6" d="M133.998 133.498C158.574 108.922 158.574 69.0756 133.998 44.4993C109.421 19.9231 69.5754 19.9231 44.9992 44.4993C20.423 69.0756 20.423 108.922 44.9992 133.498C69.5755 158.074 109.421 158.074 133.998 133.498Z" stroke="#7945DC" stroke-miterlimit="10"/>
<path d="M603.123 204.201C609.429 176.882 592.394 149.624 565.075 143.318C537.756 137.013 510.498 154.048 504.192 181.367C497.887 208.686 514.922 235.944 542.241 242.249C569.56 248.555 596.818 231.52 603.123 204.201Z" stroke="#70DBC8" stroke-miterlimit="10"/>
<path opacity="0.3" d="M275.24 190.71C290.15 175.801 290.15 151.628 275.24 136.719C260.331 121.81 236.158 121.81 221.249 136.719C206.34 151.628 206.34 175.801 221.249 190.711C236.158 205.62 260.331 205.62 275.24 190.71Z" stroke="#7945DC" stroke-miterlimit="10"/>
<g opacity="0.6">
<path d="M455.569 75.2068H453.531V77.2448H455.569V75.2068Z" fill="#7945DC"/>
<path d="M463.664 75.2068H461.626V77.2448H463.664V75.2068Z" fill="#7945DC"/>
<path d="M471.759 75.2068H469.721V77.2448H471.759V75.2068Z" fill="#7945DC"/>
<path d="M479.853 75.2068H477.815V77.2448H479.853V75.2068Z" fill="#7945DC"/>
<path d="M487.948 75.2068H485.91V77.2448H487.948V75.2068Z" fill="#7945DC"/>
<path d="M496.043 75.2068H494.005V77.2448H496.043V75.2068Z" fill="#7945DC"/>
<path d="M504.138 75.2068H502.1V77.2448H504.138V75.2068Z" fill="#7945DC"/>
<path d="M512.233 75.2068H510.195V77.2448H512.233V75.2068Z" fill="#7945DC"/>
<path d="M455.57 85.3398V83.3018H453.532V85.3398H455.57Z" fill="#70DBC8"/>
<path d="M455.569 93.4345V91.3965H453.531V93.4345H455.569Z" fill="#7945DC"/>
<path d="M455.569 101.529V99.4912H453.531V101.529H455.569Z" fill="#7945DC"/>
<path d="M455.57 109.624V107.586H453.532V109.624H455.57Z" fill="#7945DC"/>
<path d="M455.57 117.719V115.681H453.532V117.719H455.57Z" fill="#7945DC"/>
<path d="M455.569 125.814V123.776H453.531V125.814H455.569Z" fill="#70DBC8"/>
<path d="M455.569 133.908V131.87H453.531V133.908H455.569Z" fill="#7945DC"/>
<path d="M463.664 85.34V83.302H461.626V85.34H463.664Z" fill="#7945DC"/>
<path d="M463.664 93.4349V91.397H461.626V93.4349H463.664Z" fill="#7945DC"/>
<path d="M463.664 101.529V99.4915H461.626V101.529H463.664Z" fill="#7945DC"/>
<path d="M463.664 109.624V107.586H461.626V109.624H463.664Z" fill="#7945DC"/>
<path d="M463.665 117.719V115.681H461.627V117.719H463.665Z" fill="#7945DC"/>
<path d="M463.664 125.814V123.776H461.626V125.814H463.664Z" fill="#7945DC"/>
<path d="M463.664 133.909V131.871H461.626V133.909H463.664Z" fill="#7945DC"/>
<path d="M471.759 85.3403V83.3022H469.721V85.3403H471.759Z" fill="#70DBC8"/>
<path d="M471.759 93.435V91.397H469.721V93.435H471.759Z" fill="#7945DC"/>
<path d="M471.759 101.53V99.4917H469.721V101.53H471.759Z" fill="#7945DC"/>
<path d="M471.759 109.624V107.586H469.721V109.624H471.759Z" fill="#7945DC"/>
<path d="M471.759 117.719V115.681H469.721V117.719H471.759Z" fill="#7945DC"/>
<path d="M471.759 125.814V123.776H469.721V125.814H471.759Z" fill="#7945DC"/>
<path d="M471.759 133.909V131.871H469.721V133.909H471.759Z" fill="#7945DC"/>
<path d="M479.854 85.3405V83.3025H477.816V85.3405H479.854Z" fill="#7945DC"/>
<path d="M479.854 93.4352V91.3972H477.816V93.4352H479.854Z" fill="#7945DC"/>
<path d="M479.854 101.53V99.4919H477.816V101.53H479.854Z" fill="#7945DC"/>
<path d="M479.854 109.625V107.587H477.816V109.625H479.854Z" fill="#7945DC"/>
<path d="M479.854 117.718V115.68H477.816V117.718H479.854Z" fill="#70DBC8"/>
<path d="M479.854 125.814V123.776H477.816V125.814H479.854Z" fill="#7945DC"/>
<path d="M479.854 133.908V131.87H477.816V133.908H479.854Z" fill="#7945DC"/>
<path d="M487.949 85.3397V83.3018H485.911V85.3397H487.949Z" fill="#7945DC"/>
<path d="M487.948 93.4344V91.3965H485.91V93.4344H487.948Z" fill="#7945DC"/>
<path d="M487.948 101.529V99.4912H485.91V101.529H487.948Z" fill="#7945DC"/>
<path d="M487.949 109.624V107.586H485.911V109.624H487.949Z" fill="#7945DC"/>
<path d="M487.949 117.719V115.681H485.911V117.719H487.949Z" fill="#7945DC"/>
<path d="M487.948 125.814V123.776H485.91V125.814H487.948Z" fill="#7945DC"/>
<path d="M487.948 133.908V131.87H485.91V133.908H487.948Z" fill="#7945DC"/>
<path d="M496.043 85.34V83.302H494.005V85.34H496.043Z" fill="#7945DC"/>
<path d="M496.043 93.4348V91.3967H494.005V93.4348H496.043Z" fill="#7945DC"/>
<path d="M496.043 101.529V99.4915H494.005V101.529H496.043Z" fill="#7945DC"/>
<path d="M496.044 109.624V107.586H494.006V109.624H496.044Z" fill="#7945DC"/>
<path d="M496.043 117.719V115.681H494.005V117.719H496.043Z" fill="#7945DC"/>
<path d="M496.043 125.814V123.776H494.005V125.814H496.043Z" fill="#7945DC"/>
<path d="M496.043 133.909V131.871H494.005V133.909H496.043Z" fill="#70DBC8"/>
<path d="M504.138 85.3402V83.3022H502.1V85.3402H504.138Z" fill="#7945DC"/>
<path d="M504.138 93.4349V91.397H502.1V93.4349H504.138Z" fill="#7945DC"/>
<path d="M504.138 101.53V99.4917H502.1V101.53H504.138Z" fill="#7945DC"/>
<path d="M504.138 109.624V107.586H502.1V109.624H504.138Z" fill="#7945DC"/>
<path d="M504.138 117.719V115.681H502.1V117.719H504.138Z" fill="#7945DC"/>
<path d="M504.138 125.814V123.776H502.1V125.814H504.138Z" fill="#70DBC8"/>
<path d="M504.138 133.909V131.871H502.1V133.909H504.138Z" fill="#70DBC8"/>
<path d="M512.233 85.3405V83.3025H510.195V85.3405H512.233Z" fill="#7945DC"/>
<path d="M512.233 93.4352V91.3972H510.195V93.4352H512.233Z" fill="#7945DC"/>
<path d="M455.569 59.0178H453.531V61.0558H455.569V59.0178Z" fill="#7945DC"/>
<path d="M463.664 59.0178H461.626V61.0558H463.664V59.0178Z" fill="#7945DC"/>
<path d="M471.759 59.0178H469.721V61.0558H471.759V59.0178Z" fill="#70DBC8"/>
<path d="M479.853 59.0178H477.815V61.0558H479.853V59.0178Z" fill="#7945DC"/>
<path d="M487.948 59.0178H485.91V61.0558H487.948V59.0178Z" fill="#7945DC"/>
<path d="M496.043 59.0178H494.005V61.0558H496.043V59.0178Z" fill="#7945DC"/>
<path d="M504.138 59.0178H502.1V61.0558H504.138V59.0178Z" fill="#7945DC"/>
<path d="M512.233 59.0178H510.195V61.0558H512.233V59.0178Z" fill="#7945DC"/>
<path d="M455.569 69.1503V67.1123H453.531V69.1503H455.569Z" fill="#7945DC"/>
<path d="M463.664 69.1505V67.1125H461.626V69.1505H463.664Z" fill="#7945DC"/>
<path d="M471.759 69.1508V67.1128H469.721V69.1508H471.759Z" fill="#7945DC"/>
<path d="M479.853 69.1511V67.113H477.815V69.1511H479.853Z" fill="#70DBC8"/>
<path d="M487.948 69.1503V67.1123H485.91V69.1503H487.948Z" fill="#70DBC8"/>
<path d="M496.043 69.1506V67.1125H494.005V69.1506H496.043Z" fill="#7945DC"/>
<path d="M504.138 69.1508V67.1128H502.1V69.1508H504.138Z" fill="#7945DC"/>
<path d="M512.232 69.1511V67.113H510.194V69.1511H512.232Z" fill="#7945DC"/>
<path d="M512.232 101.53V99.4919H510.194V101.53H512.232Z" fill="#7945DC"/>
<path d="M512.233 109.625V107.587H510.195V109.625H512.233Z" fill="#70DBC8"/>
<path d="M512.233 117.72V115.682H510.195V117.72H512.233Z" fill="#7945DC"/>
<path d="M512.233 125.814V123.776H510.195V125.814H512.233Z" fill="#7945DC"/>
<path d="M512.232 133.909V131.871H510.194V133.909H512.232Z" fill="#7945DC"/>
</g>
<path d="M66.4599 102.679L62.2219 105.331C62.6069 105.946 63.0209 106.558 63.4509 107.148L67.4899 104.201C67.1289 103.707 66.7819 103.195 66.4599 102.679Z" fill="#70DBC8"/>
<path d="M64.024 80.6007L59.3091 78.9387C59.0681 79.6227 58.8471 80.3287 58.6541 81.0377L63.4781 82.3537C63.6391 81.7607 63.824 81.1717 64.024 80.6007Z" fill="#70DBC8"/>
<path d="M65.935 76.4268L61.593 73.9468C61.235 74.5758 60.891 75.2298 60.573 75.8928L65.081 78.0568C65.347 77.5008 65.635 76.9528 65.935 76.4268Z" fill="#70DBC8"/>
<path d="M71.813 69.4207L68.616 65.5767C68.054 66.0437 67.504 66.5367 66.978 67.0417L70.445 70.6457C70.884 70.2227 71.345 69.8107 71.813 69.4207Z" fill="#70DBC8"/>
<path d="M63.079 94.1917L58.179 95.1796C58.324 95.8996 58.495 96.6176 58.689 97.3156L63.507 95.9796C63.345 95.3956 63.201 94.7947 63.079 94.1917Z" fill="#70DBC8"/>
<path d="M64.387 98.5918L59.741 100.44C60.01 101.116 60.308 101.791 60.627 102.45L65.127 100.27C64.859 99.7188 64.61 99.1538 64.387 98.5918Z" fill="#70DBC8"/>
<path d="M62.581 89.6267L57.583 89.7277C57.598 90.4607 57.638 91.1987 57.704 91.9187L62.682 91.4657C62.628 90.8617 62.594 90.2437 62.581 89.6267Z" fill="#70DBC8"/>
<path d="M62.8969 85.0488L57.9589 84.2598C57.8449 84.9738 57.7549 85.7068 57.6909 86.4408L62.6709 86.8728C62.7259 86.2588 62.8019 85.6448 62.8969 85.0488Z" fill="#70DBC8"/>
<path d="M68.5609 72.6588L64.7309 69.4458C64.2569 70.0088 63.8019 70.5928 63.3779 71.1788L67.4309 74.1088C67.7849 73.6188 68.1659 73.1318 68.5609 72.6588Z" fill="#70DBC8"/>
<path d="M75.5879 66.8108L73.1289 62.4568C72.4939 62.8148 71.8639 63.2028 71.2549 63.6078L74.0259 67.7698C74.5349 67.4318 75.0599 67.1088 75.5879 66.8108Z" fill="#70DBC8"/>
<path d="M112.736 81.7577L117.527 80.3257C117.317 79.6237 117.08 78.9227 116.821 78.2417L112.147 80.0207C112.363 80.5867 112.561 81.1717 112.736 81.7577Z" fill="#70DBC8"/>
<path d="M111.03 77.5008L115.485 75.2298C115.155 74.5838 114.796 73.9378 114.419 73.3118L110.138 75.8958C110.454 76.4198 110.755 76.9598 111.03 77.5008Z" fill="#70DBC8"/>
<path d="M113.651 86.2568L118.62 85.7018C118.539 84.9778 118.431 84.2468 118.3 83.5298L113.382 84.4358C113.493 85.0368 113.583 85.6498 113.651 86.2568Z" fill="#70DBC8"/>
<path d="M108.588 73.6147L112.567 70.5877C112.127 70.0077 111.658 69.4367 111.174 68.8887L107.424 72.1957C107.827 72.6527 108.219 73.1307 108.588 73.6147Z" fill="#70DBC8"/>
<path d="M79.7659 64.9188L78.1219 60.1958C77.4349 60.4348 76.747 60.7038 76.075 60.9938L78.0569 65.5838C78.6179 65.3418 79.1929 65.1178 79.7659 64.9188Z" fill="#70DBC8"/>
<path d="M105.492 70.2248L108.869 66.5368C108.328 66.0418 107.766 65.5618 107.197 65.1118L104.092 69.0298C104.568 69.4088 105.039 69.8098 105.492 70.2248Z" fill="#70DBC8"/>
<path d="M104.511 63.2088C103.894 62.8188 103.255 62.4468 102.613 62.1038L100.254 66.5118C100.792 66.7998 101.328 67.1118 101.846 67.4378L104.511 63.2088Z" fill="#70DBC8"/>
<path d="M94.364 113.983L95.563 118.837C96.266 118.663 96.977 118.46 97.676 118.233L96.129 113.477C95.545 113.668 94.951 113.838 94.364 113.983Z" fill="#70DBC8"/>
<path d="M106.228 107.305L109.753 110.852C110.276 110.331 110.782 109.792 111.255 109.25L107.487 105.963C107.094 106.416 106.67 106.868 106.228 107.305Z" fill="#70DBC8"/>
<path d="M97.554 59.9587L96.0291 64.7207C96.6041 64.9057 97.186 65.1157 97.759 65.3447L99.6241 60.7057C98.9381 60.4297 98.242 60.1787 97.554 59.9587Z" fill="#70DBC8"/>
<path d="M98.696 112.485L100.753 117.042C101.42 116.741 102.081 116.414 102.719 116.07L100.344 111.67C99.81 111.958 99.256 112.232 98.696 112.485Z" fill="#70DBC8"/>
<path d="M109.188 103.794L113.286 106.659C113.708 106.057 114.109 105.435 114.48 104.815L110.189 102.249C109.879 102.768 109.542 103.288 109.188 103.794Z" fill="#70DBC8"/>
<path d="M102.697 110.231L105.527 114.352C106.123 113.944 106.715 113.503 107.292 113.043L104.171 109.137C103.689 109.522 103.193 109.89 102.697 110.231Z" fill="#70DBC8"/>
<path d="M113.807 88.9978V89.1158C113.807 89.7228 113.786 90.3428 113.742 90.9558L118.73 91.3078C118.781 90.5778 118.807 89.8398 118.807 89.1168V88.9988L113.807 88.9978Z" fill="#70DBC8"/>
<path d="M113.01 95.4877L117.856 96.7197C118.037 96.0097 118.194 95.2887 118.322 94.5767L113.402 93.6877C113.293 94.2857 113.162 94.8907 113.01 95.4877Z" fill="#70DBC8"/>
<path d="M111.475 99.8098L116.018 101.9C116.324 101.234 116.609 100.55 116.865 99.8688L112.183 98.1128C111.97 98.6818 111.731 99.2538 111.475 99.8098Z" fill="#70DBC8"/>
<path d="M74.2 116.353C74.848 116.687 75.5189 117.001 76.1919 117.289L78.1529 112.689C77.5899 112.449 77.03 112.186 76.489 111.908L74.2 116.353Z" fill="#70DBC8"/>
<path d="M69.232 106.338L65.533 109.703C66.026 110.244 66.542 110.772 67.066 111.272L70.517 107.655C70.078 107.235 69.645 106.793 69.232 106.338Z" fill="#70DBC8"/>
<path d="M81.2881 59.2827L82.4131 64.1537C83.0111 64.0157 83.6161 63.8997 84.2131 63.8067L83.4491 58.8657C82.7311 58.9767 82.0041 59.1167 81.2881 59.2827Z" fill="#70DBC8"/>
<path d="M79.291 118.416C79.984 118.626 80.699 118.815 81.414 118.978L82.519 114.101C81.919 113.965 81.322 113.807 80.742 113.631L79.291 118.416Z" fill="#70DBC8"/>
<path d="M69.571 113.419C70.156 113.866 70.758 114.294 71.356 114.69L74.11 110.516C73.606 110.184 73.1 109.825 72.606 109.447L69.571 113.419Z" fill="#70DBC8"/>
<path d="M86.7209 58.5347L86.961 63.5287C87.351 63.5097 87.741 63.5007 88.14 63.5007C88.36 63.5027 88.5819 63.5037 88.8039 63.5077L88.9129 58.5097C88.6739 58.5037 88.433 58.5007 88.198 58.5007C87.677 58.5027 87.2109 58.5107 86.7209 58.5347Z" fill="#70DBC8"/>
<path d="M84.6631 119.529C85.3811 119.612 86.1171 119.67 86.8501 119.702L87.0671 114.706C86.4511 114.68 85.8351 114.631 85.2331 114.562L84.6631 119.529Z" fill="#70DBC8"/>
<path d="M89.8301 114.678L90.1411 119.668C90.8701 119.623 91.6061 119.55 92.3291 119.452L91.6571 114.497C91.0531 114.58 90.4381 114.64 89.8301 114.678Z" fill="#70DBC8"/>
<path d="M92.2001 58.7607L91.55 63.7177C92.158 63.7977 92.7681 63.9007 93.3611 64.0227L94.369 59.1237C93.656 58.9787 92.9271 58.8557 92.2001 58.7607Z" fill="#70DBC8"/>
<path d="M348.658 115.845H347.658V107.334H356.169V108.334H348.658V115.845Z" fill="#9EF3D2"/>
<path d="M384.681 115.845H383.681V108.334H376.17V107.334H384.681V115.845Z" fill="#9EF3D2"/>
<path d="M384.681 144.355H376.17V143.355H383.681V135.845H384.681V144.355Z" fill="#9EF3D2"/>
<path d="M356.169 144.355H347.658V135.845H348.658V143.355H356.169V144.355Z" fill="#9EF3D2"/>
<path d="M371.708 125.845C371.708 128.904 369.228 131.383 366.169 131.383C363.11 131.383 360.631 128.903 360.631 125.845C360.631 122.786 363.111 120.306 366.169 120.306C369.228 120.306 371.708 122.786 371.708 125.845Z" fill="#7945DC"/>
<path d="M366.169 127.31C365.361 127.31 364.703 126.652 364.703 125.844C364.703 125.036 365.361 124.378 366.169 124.378C366.978 124.378 367.635 125.036 367.635 125.844C367.635 126.653 366.978 127.31 366.169 127.31Z" fill="#9EF3D2"/>
<path d="M226.541 111.956H184.711C184.171 111.956 183.734 111.518 183.734 110.979C183.734 110.439 184.172 110.002 184.711 110.002H226.541C227.081 110.002 227.518 110.44 227.518 110.979C227.518 111.518 227.08 111.956 226.541 111.956Z" fill="#9EF3D2"/>
<path d="M206.539 117.226H184.71C184.17 117.226 183.733 116.788 183.733 116.249C183.733 115.709 184.171 115.272 184.71 115.272H206.539C207.079 115.272 207.516 115.71 207.516 116.249C207.517 116.788 207.079 117.226 206.539 117.226Z" fill="#9EF3D2"/>
<path d="M561.221 85.4567H519.391C518.851 85.4567 518.414 85.0187 518.414 84.4797C518.414 83.9397 518.852 83.5027 519.391 83.5027H561.221C561.761 83.5027 562.198 83.9407 562.198 84.4797C562.198 85.0187 561.761 85.4567 561.221 85.4567Z" fill="#7945DC"/>
<path d="M541.219 90.7257H519.39C518.85 90.7257 518.413 90.2877 518.413 89.7487C518.413 89.2087 518.851 88.7717 519.39 88.7717H541.219C541.759 88.7717 542.196 89.2097 542.196 89.7487C542.197 90.2877 541.759 90.7257 541.219 90.7257Z" fill="#7945DC"/>
<path d="M85.42 199.558H63.591C63.051 199.558 62.614 199.12 62.614 198.581C62.614 198.041 63.052 197.604 63.591 197.604H85.42C85.96 197.604 86.397 198.042 86.397 198.581C86.397 199.121 85.96 199.558 85.42 199.558Z" fill="#7945DC"/>
<path d="M85.42 204.828H63.591C63.051 204.828 62.614 204.39 62.614 203.851C62.614 203.311 63.052 202.874 63.591 202.874H85.42C85.96 202.874 86.397 203.312 86.397 203.851C86.397 204.39 85.96 204.828 85.42 204.828Z" fill="#7945DC"/>
<path d="M561.221 122.703H519.391C518.851 122.703 518.414 122.265 518.414 121.726C518.414 121.186 518.852 120.749 519.391 120.749H561.221C561.761 120.749 562.198 121.187 562.198 121.726C562.198 122.265 561.761 122.703 561.221 122.703Z" fill="#9EF3D2"/>
<path d="M541.219 127.972H519.39C518.85 127.972 518.413 127.534 518.413 126.995C518.413 126.455 518.851 126.018 519.39 126.018H541.219C541.759 126.018 542.196 126.456 542.196 126.995C542.197 127.535 541.759 127.972 541.219 127.972Z" fill="#9EF3D2"/>
<path d="M541.219 133.242H519.39C518.85 133.242 518.413 132.804 518.413 132.265C518.413 131.725 518.851 131.288 519.39 131.288H541.219C541.759 131.288 542.196 131.726 542.196 132.265C542.197 132.804 541.759 133.242 541.219 133.242Z" fill="#9EF3D2"/>
<path d="M105.421 175.953H63.591C63.051 175.953 62.614 175.515 62.614 174.976C62.614 174.436 63.052 173.999 63.591 173.999H105.421C105.961 173.999 106.398 174.437 106.398 174.976C106.398 175.515 105.961 175.953 105.421 175.953Z" fill="#9EF3D2"/>
<path d="M105.421 171.191H63.591C63.051 171.191 62.614 170.753 62.614 170.214C62.614 169.674 63.052 169.237 63.591 169.237H105.421C105.961 169.237 106.398 169.675 106.398 170.214C106.398 170.753 105.961 171.191 105.421 171.191Z" fill="#9EF3D2"/>
<path d="M105.421 166.429H63.591C63.051 166.429 62.614 165.991 62.614 165.452C62.614 164.912 63.052 164.475 63.591 164.475H105.421C105.961 164.475 106.398 164.913 106.398 165.452C106.398 165.991 105.961 166.429 105.421 166.429Z" fill="#9EF3D2"/>
<path d="M85.42 180.715H63.591C63.051 180.715 62.614 180.277 62.614 179.738C62.614 179.198 63.052 178.761 63.591 178.761H85.42C85.96 178.761 86.397 179.199 86.397 179.738C86.397 180.277 85.96 180.715 85.42 180.715Z" fill="#9EF3D2"/>
<path d="M96.8397 90.5089C97.6171 85.7316 94.3744 81.2287 89.5971 80.4513C84.8198 79.674 80.3169 82.9166 79.5396 87.6939C78.7622 92.4712 82.0048 96.9742 86.7821 97.7515C91.5594 98.5288 96.0624 95.2862 96.8397 90.5089Z" fill="#A28FFF"/>
<path d="M185.62 51.7046C184.57 51.7046 183.719 52.5556 183.719 53.6056V62.5376C183.719 63.5876 184.57 64.4386 185.62 64.4386C186.67 64.4386 187.521 63.5876 187.521 62.5376V53.6056C187.521 52.5556 186.67 51.7046 185.62 51.7046Z" fill="#A28FFF"/>
<path d="M192.284 51.7046C191.234 51.7046 190.383 52.5556 190.383 53.6056V62.5376C190.383 63.5876 191.234 64.4386 192.284 64.4386C193.334 64.4386 194.185 63.5876 194.185 62.5376V53.6056C194.184 52.5556 193.333 51.7046 192.284 51.7046Z" fill="#A28FFF"/>
<path d="M198.947 51.7046C197.897 51.7046 197.046 52.5556 197.046 53.6056V62.5376C197.046 63.5876 197.897 64.4386 198.947 64.4386C199.997 64.4386 200.848 63.5876 200.848 62.5376V53.6056C200.848 52.5556 199.997 51.7046 198.947 51.7046Z" fill="#A28FFF"/>
<path d="M205.611 51.7046C204.561 51.7046 203.71 52.5556 203.71 53.6056V62.5376C203.71 63.5876 204.561 64.4386 205.611 64.4386C206.661 64.4386 207.512 63.5876 207.512 62.5376V53.6056C207.512 52.5556 206.661 51.7046 205.611 51.7046Z" fill="#A28FFF"/>
<path d="M212.275 51.7046C211.225 51.7046 210.374 52.5556 210.374 53.6056V62.5376C210.374 63.5876 211.225 64.4386 212.275 64.4386C213.325 64.4386 214.176 63.5876 214.176 62.5376V53.6056C214.176 52.5556 213.325 51.7046 212.275 51.7046Z" fill="#A28FFF"/>
<path d="M218.939 51.7046C217.889 51.7046 217.038 52.5556 217.038 53.6056V62.5376C217.038 63.5876 217.889 64.4386 218.939 64.4386C219.989 64.4386 220.84 63.5876 220.84 62.5376V53.6056C220.84 52.5556 219.989 51.7046 218.939 51.7046Z" fill="#A28FFF"/>
<path d="M225.603 51.7046C224.553 51.7046 223.702 52.5556 223.702 53.6056V62.5376C223.702 63.5876 224.553 64.4386 225.603 64.4386C226.653 64.4386 227.504 63.5876 227.504 62.5376V53.6056C227.503 52.5556 226.652 51.7046 225.603 51.7046Z" fill="#A28FFF"/>
<path d="M232.266 51.7046C231.216 51.7046 230.365 52.5556 230.365 53.6056V62.5376C230.365 63.5876 231.216 64.4386 232.266 64.4386C233.316 64.4386 234.167 63.5876 234.167 62.5376V53.6056C234.167 52.5556 233.316 51.7046 232.266 51.7046Z" fill="#A28FFF"/>
<path d="M238.93 51.7046C237.88 51.7046 237.029 52.5556 237.029 53.6056V62.5376C237.029 63.5876 237.88 64.4386 238.93 64.4386C239.98 64.4386 240.831 63.5876 240.831 62.5376V53.6056C240.831 52.5556 239.98 51.7046 238.93 51.7046Z" fill="#7945DC"/>
<path d="M245.594 51.7046C244.544 51.7046 243.693 52.5556 243.693 53.6056V62.5376C243.693 63.5876 244.544 64.4386 245.594 64.4386C246.644 64.4386 247.495 63.5876 247.495 62.5376V53.6056C247.495 52.5556 246.644 51.7046 245.594 51.7046Z" fill="#7945DC"/>
<path d="M252.258 51.7046C251.208 51.7046 250.357 52.5556 250.357 53.6056V62.5376C250.357 63.5876 251.208 64.4386 252.258 64.4386C253.308 64.4386 254.159 63.5876 254.159 62.5376V53.6056C254.159 52.5556 253.308 51.7046 252.258 51.7046Z" fill="#7945DC"/>
<path d="M258.922 51.7046C257.872 51.7046 257.021 52.5556 257.021 53.6056V62.5376C257.021 63.5876 257.872 64.4386 258.922 64.4386C259.972 64.4386 260.823 63.5876 260.823 62.5376V53.6056C260.822 52.5556 259.971 51.7046 258.922 51.7046Z" fill="#7945DC"/>
<path opacity="0.3" d="M267.15 46.8047H177.391V69.5007H267.15V46.8047Z" stroke="#7945DC" stroke-miterlimit="10"/>
<path d="M469.574 166.184V159.061C469.574 156.297 471.815 154.056 474.579 154.056H492.219C494.983 154.056 497.224 156.297 497.224 159.061V166.184C497.224 168.948 494.983 171.189 492.219 171.189H474.579C471.814 171.188 469.574 168.948 469.574 166.184Z" fill="#9071F4"/>
<path d="M465.613 166.184V159.061C465.613 156.297 467.854 154.056 470.618 154.056H488.258C491.022 154.056 493.263 156.297 493.263 159.061V166.184C493.263 168.948 491.022 171.189 488.258 171.189H470.618C467.854 171.188 465.613 168.948 465.613 166.184Z" fill="#7945DC"/>
<path d="M482.919 162.622C482.919 164.545 481.36 166.104 479.437 166.104C477.514 166.104 475.955 164.545 475.955 162.622C475.955 160.699 477.514 159.14 479.437 159.14C481.36 159.14 482.919 160.699 482.919 162.622Z" fill="#582EBF"/>
<path d="M481.197 162.622C481.197 163.594 480.409 164.382 479.437 164.382C478.465 164.382 477.677 163.594 477.677 162.622C477.677 161.65 478.465 160.862 479.437 160.862C480.409 160.862 481.197 161.65 481.197 162.622Z" fill="#70DBC8"/>
<path d="M511.493 275.163H482.142V273.163H511.493C520.741 273.163 528.264 265.64 528.264 256.393V239.365C528.264 230.117 520.741 222.594 511.493 222.594H482.142V220.594H511.493C521.844 220.594 530.264 229.015 530.264 239.365V256.393C530.264 266.742 521.843 275.163 511.493 275.163Z" fill="#1E0049"/>
<path d="M340.995 275.163H311.644V273.163H340.995C350.242 273.163 357.765 265.64 357.765 256.393V239.365C357.765 230.117 350.242 222.594 340.995 222.594H311.644V220.594H340.995C351.345 220.594 359.765 229.015 359.765 239.365V256.393C359.765 266.742 351.344 275.163 340.995 275.163Z" fill="#1E0049"/>
<path d="M426.814 423.563H406.874C374.992 423.563 349.055 397.625 349.055 365.745V274.591H351.055V365.745C351.055 396.523 376.095 421.563 406.874 421.563H426.814V423.563Z" fill="#1E0049"/>
<path d="M418.236 423.563H398.297C366.415 423.563 340.478 397.625 340.478 365.745V274.591H342.478V365.745C342.478 396.523 367.518 421.563 398.297 421.563H418.236V423.563Z" fill="#1E0049"/>
<path d="M430.616 423.563H410.677C378.795 423.563 352.858 397.625 352.858 365.745V274.591H354.858V365.745C354.858 396.523 379.898 421.563 410.677 421.563H430.616V423.563Z" fill="#1E0049"/>
<path d="M402.173 423.563H382.234C350.352 423.563 324.415 397.625 324.415 365.745V274.591H326.415V365.745C326.415 396.523 351.455 421.563 382.234 421.563H402.173V423.563Z" fill="#1E0049"/>
<path d="M385.095 240.172V154.056L243.731 154.056L243.731 240.172L385.095 240.172Z" fill="#193BA5"/>
<path d="M382.31 240.171V154.055L240.946 154.055L240.946 240.171L382.31 240.171Z" fill="#1E0049"/>
<path d="M374.162 162.203H249.094V232.023H374.162V162.203Z" fill="#70DBC8"/>
<path d="M249.094 232.024V162.203H374.162L249.094 232.024Z" fill="#9EF3D2"/>
<path d="M334.141 240.172H296.54V261.583H334.141V240.172Z" fill="#193BA5"/>
<path d="M345.119 261.583H285.561V264.891H345.119V261.583Z" fill="#347FF4"/>
<path d="M515.26 248.192V172.919L396.844 172.919V248.192L515.26 248.192Z" fill="#193BA5"/>
<path d="M512.825 248.192V172.919L394.409 172.919V248.192L512.825 248.192Z" fill="#1E0049"/>
<path d="M505.703 180.041H401.531V241.07H505.703V180.041Z" fill="#70DBC8"/>
<path d="M401.531 241.07V180.041H505.703L401.531 241.07Z" fill="#9EF3D2"/>
<path d="M473.295 248.192H440.429V261.999H473.295V248.192Z" fill="#193BA5"/>
<path d="M482.891 261.999H430.832V264.89H482.891V261.999Z" fill="#347FF4"/>
<path d="M231.632 248.192V172.919L113.216 172.919L113.216 248.192L231.632 248.192Z" fill="#193BA5"/>
<path d="M229.198 248.191V172.918L110.782 172.918L110.782 248.191L229.198 248.191Z" fill="#1E0049"/>
<path d="M222.076 180.041H117.904V241.07H222.076V180.041Z" fill="#70DBC8"/>
<path d="M117.904 241.07V180.041H222.076L117.904 241.07Z" fill="#9EF3D2"/>
<path d="M189.667 248.192H156.801V261.999H189.667V248.192Z" fill="#193BA5"/>
<path d="M199.264 261.999H147.205V264.89H199.264V261.999Z" fill="#347FF4"/>
<path d="M488.138 298.133H405.199V423.563H488.138V298.133Z" fill="#3467DB"/>
<path d="M426.603 298.133H369.356V423.563H426.603V298.133Z" fill="#2343BC"/>
<path d="M488.748 298.133H420.505C418.466 298.133 416.813 296.48 416.813 294.441C416.813 292.402 418.466 290.749 420.505 290.749H488.748C490.787 290.749 492.44 292.402 492.44 294.441C492.44 296.48 490.787 298.133 488.748 298.133Z" fill="#347FF4"/>
<path d="M426.182 298.133H368.899C366.86 298.133 365.207 296.48 365.207 294.441C365.207 292.402 366.86 290.749 368.899 290.749H426.182C428.221 290.749 429.874 292.402 429.874 294.441C429.874 296.48 428.221 298.133 426.182 298.133Z" fill="#3467DB"/>
<path d="M426.603 298.133H369.356V299.153H426.603V298.133Z" fill="#1E308B"/>
<path d="M522.021 275.409H235.36C232.455 275.409 230.101 273.054 230.101 270.15C230.101 267.245 232.456 264.891 235.36 264.891H522.021C524.926 264.891 527.28 267.246 527.28 270.15C527.281 273.054 524.926 275.409 522.021 275.409Z" fill="#9071F4"/>
<path d="M400.14 275.409H93.478C90.573 275.409 88.219 273.054 88.219 270.15C88.219 267.245 90.574 264.891 93.478 264.891H400.14C403.045 264.891 405.399 267.246 405.399 270.15C405.399 273.054 403.045 275.409 400.14 275.409Z" fill="#7945DC"/>
<path d="M396.08 423.563C395.981 423.563 395.882 423.558 395.782 423.548C394.133 423.386 392.927 421.917 393.091 420.269L407.092 278.115C407.243 276.579 408.534 275.409 410.077 275.409H518.775C520.432 275.409 521.775 276.752 521.775 278.409V420.563C521.775 422.22 520.432 423.563 518.775 423.563C517.118 423.563 515.775 422.22 515.775 420.563V281.409H412.796L399.062 420.857C398.909 422.406 397.604 423.563 396.08 423.563Z" fill="#A28FFF"/>
<path d="M85.606 423.563C85.507 423.563 85.408 423.558 85.308 423.548C83.659 423.386 82.453 421.917 82.617 420.269L96.618 278.115C96.769 276.579 98.06 275.409 99.603 275.409H208.301C209.958 275.409 211.301 276.752 211.301 278.409V420.563C211.301 422.22 209.958 423.563 208.301 423.563C206.644 423.563 205.301 422.22 205.301 420.563V281.409H102.322L88.588 420.857C88.435 422.406 87.13 423.563 85.606 423.563Z" fill="#9071F4"/>
<path d="M236.026 192.592L216.612 197.324L223.864 227.078L243.278 222.347L236.026 192.592Z" fill="white"/>
<path d="M236.815 210.109L232.819 211.083C222.49 213.601 212.075 207.269 209.557 196.939L205.915 182C203.397 171.671 209.729 161.256 220.059 158.738L224.055 157.764C234.384 155.246 244.799 161.578 247.318 171.908L250.96 186.847C253.477 197.176 247.144 207.591 236.815 210.109Z" fill="white"/>
<path d="M246.879 145.96C243.437 143.307 237.59 148.998 230.56 152.027C223.53 155.056 207.959 151.39 203.223 159.718C201.634 162.512 203.529 166.388 203.529 166.388C203.529 166.388 196.358 169.915 196.352 172.919C196.342 177.471 198.722 184.701 201.091 188.207C205.025 194.03 220.61 203.208 228.167 203.208C240.258 203.208 229.78 176.748 232.707 170.736C234.803 166.429 238.483 165.757 242.274 163.791C245.206 162.271 248.283 159.515 249.155 155.335C250.202 150.304 248.938 147.547 246.879 145.96Z" fill="#7945DC"/>
<path d="M199.519 185.348L208.16 205.179C209.668 208.22 212.869 210.044 216.254 209.792L228.907 208.17C233.626 207.818 236.935 203.363 235.91 198.744L232.578 183.831L199.519 185.348Z" fill="#7945DC"/>
<path d="M235.498 185.931C236.726 189.642 235.176 193.494 232.034 194.533C228.893 195.573 225.35 193.407 224.122 189.696C222.894 185.985 224.444 182.133 227.586 181.094C230.727 180.054 234.27 182.22 235.498 185.931Z" fill="white"/>
<path d="M338.845 250.05C332.295 250.05 326.985 255.36 326.985 261.91H350.705C350.705 255.36 345.395 250.05 338.845 250.05Z" fill="white"/>
<path d="M352.858 261.91H326.985V264.89H352.858V261.91Z" fill="#70DBC8"/>
<path d="M258.238 328.039L253.106 328.957C228.553 333.349 204.981 317.345 200.005 292.904L185.793 223.1L237.011 216.722C247.043 215.473 256.369 222.088 258.505 231.969L279.897 296.149C281.382 300.419 280.582 305.152 277.777 308.697L266.277 323.229C264.274 325.76 261.415 327.471 258.238 328.039Z" fill="#1E0049"/>
<path d="M333.156 257.379C333.638 263.742 328.59 269.312 321.881 269.82L285.321 272.681C278.613 273.189 272.784 268.442 272.302 262.079C271.82 255.716 276.868 250.146 283.577 249.638L320.137 246.777C326.846 246.269 332.674 251.016 333.156 257.379Z" fill="#1E0049"/>
<path d="M291.5 269.679C286.864 274.064 279.358 273.656 274.735 268.768L242.607 234.915C237.984 230.027 237.995 222.51 242.632 218.125C247.268 213.74 254.774 214.148 259.397 219.036L291.525 252.889C296.147 257.777 296.136 265.294 291.5 269.679Z" fill="#1E0049"/>
<path d="M242.443 203.412C241.964 203.415 241.491 203.189 241.198 202.765L230.823 190.484C230.352 189.802 230.522 188.869 231.204 188.397C231.886 187.926 232.82 188.097 233.291 188.778L242.834 199.856L254.028 192.542C254.722 192.088 255.651 192.282 256.104 192.977C256.558 193.67 256.363 194.6 255.669 195.053L243.251 203.167C243.003 203.332 242.722 203.411 242.443 203.412Z" fill="#1E0049"/>
<path d="M201.351 161.26L200.817 165.464C200.675 166.584 201.553 167.575 202.681 167.554C207.777 167.458 220.956 168.584 222.336 181.689L230.198 178.109C229.938 160.393 209.033 159.515 203.141 159.639C202.224 159.657 201.466 160.35 201.351 161.26Z" fill="#193BA5"/>
<path d="M202.32 165.877C201.734 165.888 201.215 165.645 200.842 165.262L200.816 165.464C200.674 166.584 201.552 167.575 202.68 167.554C207.776 167.458 220.955 168.584 222.335 181.689L223.831 181.008C222.103 166.993 207.861 165.772 202.32 165.877Z" fill="#1E0049"/>
<path d="M237.912 184.661C239.556 189.628 236.988 194.945 232.175 196.538C227.362 198.131 222.128 195.396 220.484 190.43C218.84 185.463 221.408 180.146 226.221 178.553C231.034 176.96 236.268 179.694 237.912 184.661Z" fill="#347FF4"/>
<path d="M229.369 193.993C226.65 193.993 224.224 192.182 223.332 189.487C222.211 186.099 223.93 182.472 227.164 181.401C227.769 181.201 228.396 181.099 229.028 181.099C231.746 181.099 234.171 182.91 235.064 185.605C235.613 187.262 235.505 189.022 234.762 190.56C234.035 192.066 232.782 193.177 231.232 193.691C230.627 193.891 230 193.993 229.369 193.993Z" fill="#1E0049"/>
<path d="M242.215 326.318L241.214 319.36L221.991 185.763H175.174C167.884 185.763 162.287 192.223 163.325 199.439L181.581 326.317C183.365 338.718 193.99 347.923 206.518 347.923H267.152C254.624 347.923 243.999 338.718 242.215 326.318Z" fill="#2343BC"/>
<path d="M258.409 293.749C237.164 273.466 234.183 221.172 233.961 197.598C233.899 191.04 228.549 185.763 221.991 185.763L241.214 319.36L242.215 326.318C243.999 338.718 254.624 347.923 267.152 347.923H279.211C279.211 347.923 286.225 320.304 258.409 293.749Z" fill="#3467DB"/>
</svg>
