<svg width="69" height="70" viewBox="0 0 69 70" fill="none" xmlns="http://www.w3.org/2000/svg">
<g filter="url(#filter0_d_67_12)">
<path fill-rule="evenodd" clip-rule="evenodd" d="M39.4071 21.65C39.7993 19.8564 42.3536 19.8457 42.7629 21.6372L42.7821 21.7229L42.8207 21.8879C43.2921 23.8979 44.9186 25.4343 46.9564 25.7879C48.8271 26.1136 48.8271 28.8007 46.9564 29.1264C45.955 29.3003 45.0272 29.7664 44.2899 30.466C43.5525 31.1656 43.0384 32.0676 42.8121 33.0586L42.7629 33.2772C42.3557 35.0686 39.7993 35.0579 39.405 33.2643L39.3643 33.0757C39.1472 32.0812 38.6386 31.1739 37.9035 30.4697C37.1684 29.7655 36.2401 29.2964 35.2371 29.1222C33.3707 28.7986 33.3707 26.1157 35.2371 25.7922C36.2365 25.6187 37.1618 25.1523 37.8958 24.4523C38.6298 23.7523 39.1394 22.85 39.36 21.86L39.39 21.7229L39.4071 21.65ZM34.8343 31.43C34.306 31.3429 33.7991 31.156 33.3407 30.8793H27.9471C26.3652 30.8791 24.8387 31.4621 23.6598 32.5169C22.4808 33.5718 21.7322 35.0242 21.5571 36.5964L20.7 44.3279C20.5794 45.4488 20.8559 46.5764 21.4814 47.5144C22.1069 48.4523 23.0416 49.1411 24.1228 49.4606C25.2039 49.7801 26.3629 49.7101 27.3977 49.2628C28.4326 48.8155 29.2777 48.0193 29.7857 47.0129L30.5443 45.4979H36.8143L37.5707 47.0129C38.0753 48.025 38.9202 48.8271 39.9571 49.2785C40.994 49.7298 42.1568 49.8016 43.2414 49.4813C44.326 49.1609 45.2631 48.4688 45.8884 47.5265C46.5136 46.5841 46.7871 45.4517 46.6607 44.3279L45.8036 36.5964C45.7057 35.7085 45.4232 34.8509 44.9743 34.0786C43.8129 38.0257 38.0271 37.9057 37.1207 33.7636L37.0779 33.575C36.9597 33.0356 36.6837 32.5435 36.2849 32.1615C35.8861 31.7795 35.3826 31.5249 34.8386 31.43H34.8343ZM29.5371 36.0993C29.5371 35.7441 29.396 35.4034 29.1449 35.1523C28.8937 34.9011 28.5531 34.76 28.1979 34.76C27.8427 34.76 27.502 34.9011 27.2508 35.1523C26.9997 35.4034 26.8586 35.7441 26.8586 36.0993V37.1964H25.7614C25.4062 37.1964 25.0656 37.3375 24.8144 37.5887C24.5632 37.8399 24.4221 38.1805 24.4221 38.5357C24.4221 38.8909 24.5632 39.2316 24.8144 39.4827C25.0656 39.7339 25.4062 39.875 25.7614 39.875H26.8586V40.9722C26.8586 41.3274 26.9997 41.668 27.2508 41.9192C27.502 42.1703 27.8427 42.3114 28.1979 42.3114C28.5531 42.3114 28.8937 42.1703 29.1449 41.9192C29.396 41.668 29.5371 41.3274 29.5371 40.9722V39.875H30.6343C30.9895 39.875 31.3301 39.7339 31.5813 39.4827C31.8325 39.2316 31.9736 38.8909 31.9736 38.5357C31.9736 38.1805 31.8325 37.8399 31.5813 37.5887C31.3301 37.3375 30.9895 37.1964 30.6343 37.1964H29.5371V36.0993ZM39.7157 39.8407C39.7259 40.0184 39.6997 40.1963 39.6387 40.3634C39.5777 40.5306 39.4833 40.6836 39.3611 40.813C39.2389 40.9424 39.0916 41.0455 38.9282 41.1159C38.7648 41.1863 38.5887 41.2227 38.4107 41.2227C38.2328 41.2227 38.0567 41.1863 37.8933 41.1159C37.7298 41.0455 37.5825 40.9424 37.4603 40.813C37.3382 40.6836 37.2437 40.5306 37.1827 40.3634C37.1217 40.1963 37.0955 40.0184 37.1057 39.8407C37.1248 39.5075 37.2706 39.1943 37.5133 38.9652C37.7559 38.736 38.077 38.6084 38.4107 38.6084C38.7444 38.6084 39.0655 38.736 39.3082 38.9652C39.5508 39.1943 39.6966 39.5075 39.7157 39.8407Z" fill="#00FEFF"/>
</g>
<defs>
<filter id="filter0_d_67_12" x="0.572363" y="0.199194" width="67.887" height="69.5792" filterUnits="userSpaceOnUse" color-interpolation-filters="sRGB">
<feFlood flood-opacity="0" result="BackgroundImageFix"/>
<feColorMatrix in="SourceAlpha" type="matrix" values="0 0 0 0 0 0 0 0 0 0 0 0 0 0 0 0 0 0 127 0" result="hardAlpha"/>
<feOffset/>
<feGaussianBlur stdDeviation="10.05"/>
<feComposite in2="hardAlpha" operator="out"/>
<feColorMatrix type="matrix" values="0 0 0 0 0 0 0 0 0 0.996078 0 0 0 0 1 0 0 0 0.7 0"/>
<feBlend mode="normal" in2="BackgroundImageFix" result="effect1_dropShadow_67_12"/>
<feBlend mode="normal" in="SourceGraphic" in2="effect1_dropShadow_67_12" result="shape"/>
</filter>
</defs>
</svg>
