<svg width="65" height="64" viewBox="0 0 65 64" fill="none" xmlns="http://www.w3.org/2000/svg">
<g filter="url(#filter0_d_27_21)">
<path d="M32.4999 28.0946C30.3495 28.0946 28.5946 29.8495 28.5946 31.9999C28.5946 34.1503 30.3495 35.9052 32.4999 35.9052C34.6503 35.9052 36.4052 34.1503 36.4052 31.9999C36.4052 29.8495 34.6503 28.0946 32.4999 28.0946ZM44.2128 31.9999C44.2128 30.3827 44.2274 28.7802 44.1366 27.1659C44.0458 25.2909 43.6181 23.6268 42.247 22.2558C40.8729 20.8817 39.2118 20.4569 37.3368 20.3661C35.7196 20.2753 34.1171 20.2899 32.5028 20.2899C30.8856 20.2899 29.2831 20.2753 27.6688 20.3661C25.7938 20.4569 24.1298 20.8847 22.7587 22.2558C21.3847 23.6298 20.9599 25.2909 20.869 27.1659C20.7782 28.7831 20.7929 30.3856 20.7929 31.9999C20.7929 33.6142 20.7782 35.2196 20.869 36.8339C20.9599 38.7089 21.3876 40.3729 22.7587 41.744C24.1327 43.1181 25.7938 43.5429 27.6688 43.6337C29.286 43.7245 30.8886 43.7099 32.5028 43.7099C34.12 43.7099 35.7226 43.7245 37.3368 43.6337C39.2118 43.5429 40.8759 43.1151 42.247 41.744C43.621 40.37 44.0458 38.7089 44.1366 36.8339C44.2304 35.2196 44.2128 33.6171 44.2128 31.9999ZM32.4999 38.0087C29.1747 38.0087 26.4911 35.3251 26.4911 31.9999C26.4911 28.6747 29.1747 25.9911 32.4999 25.9911C35.8251 25.9911 38.5087 28.6747 38.5087 31.9999C38.5087 35.3251 35.8251 38.0087 32.4999 38.0087ZM38.7548 27.1483C37.9784 27.1483 37.3515 26.5214 37.3515 25.745C37.3515 24.9686 37.9784 24.3417 38.7548 24.3417C39.5311 24.3417 40.1581 24.9686 40.1581 25.745C40.1583 25.9294 40.1222 26.1119 40.0517 26.2823C39.9813 26.4527 39.8779 26.6075 39.7476 26.7378C39.6172 26.8682 39.4624 26.9715 39.2921 27.042C39.1217 27.1124 38.9391 27.1486 38.7548 27.1483Z" fill="#00FEFF"/>
</g>
<defs>
<filter id="filter0_d_27_21" x="0.691992" y="0.189062" width="63.6221" height="63.6219" filterUnits="userSpaceOnUse" color-interpolation-filters="sRGB">
<feFlood flood-opacity="0" result="BackgroundImageFix"/>
<feColorMatrix in="SourceAlpha" type="matrix" values="0 0 0 0 0 0 0 0 0 0 0 0 0 0 0 0 0 0 127 0" result="hardAlpha"/>
<feOffset/>
<feGaussianBlur stdDeviation="10.05"/>
<feComposite in2="hardAlpha" operator="out"/>
<feColorMatrix type="matrix" values="0 0 0 0 0 0 0 0 0 0.996078 0 0 0 0 1 0 0 0 0.4 0"/>
<feBlend mode="normal" in2="BackgroundImageFix" result="effect1_dropShadow_27_21"/>
<feBlend mode="normal" in="SourceGraphic" in2="effect1_dropShadow_27_21" result="shape"/>
</filter>
</defs>
</svg>

