<svg width="31" height="30" viewBox="0 0 31 30" fill="none" xmlns="http://www.w3.org/2000/svg">
<g clip-path="url(#clip0_24_2728)">
<path d="M20.0209 16.3716C20.2234 16.1668 20.3369 15.8904 20.3369 15.6024C20.3369 15.3144 20.2234 15.038 20.0209 14.8331L15.6668 10.479C15.2459 10.0581 14.5492 10.0581 14.1283 10.479L1.661 22.9463C0.914918 23.6964 0.496106 24.7113 0.496106 25.7693C0.496106 26.8272 0.914918 27.8421 1.661 28.5922L1.90774 28.8389C2.6578 29.585 3.67273 30.0038 4.73067 30.0038C5.78861 30.0038 6.80353 29.585 7.5536 28.8389L20.0209 16.3716Z" fill="#3E5AFF"/>
<path d="M30.5 8.34544C30.5 7.34399 30.3258 6.38608 30.0065 5.50074C29.8759 5.15241 29.5856 4.89116 29.2228 4.80408C28.8599 4.71699 28.4826 4.8331 28.2213 5.09435L24.6219 8.69377L21.8062 8.69377L21.8062 5.8781L25.3911 2.29319C25.5212 2.16505 25.6161 2.00569 25.667 1.83035C25.7178 1.655 25.7228 1.46955 25.6814 1.29174C25.5943 0.928895 25.3331 0.638619 24.9848 0.507995C24.0994 0.188692 23.1415 0.014526 22.1401 0.014526C17.5247 0.0145258 13.7946 3.74457 13.7946 8.35995C13.7946 12.9753 17.5247 16.7054 22.1401 16.7054C26.7554 16.7054 30.5 12.9608 30.5 8.34544Z" fill="#91A0FB"/>
</g>
<defs>
<clipPath id="clip0_24_2728">
<rect width="30" height="30" fill="white" transform="translate(30.5) rotate(90)"/>
</clipPath>
</defs>
</svg>
