<svg width="71" height="71" viewBox="0 0 71 71" fill="none" xmlns="http://www.w3.org/2000/svg">
<g filter="url(#filter0_i_24_2792)">
<rect x="5.66675" y="5.5" width="59" height="59" rx="13.5" stroke="#908EC3"/>
</g>
<g filter="url(#filter1_d_24_2792)">
<path d="M48.3125 25H47.3C47.0375 25.8375 46.6875 26.675 46.275 27.5H48V41.25H23V27.5H25.35C25.475 26.925 25.7625 26.375 26.2 25.9375C26.5375 25.6 26.9125 25.2875 27.325 25H22.6875C21.4875 25 20.5 25.9875 20.5 27.1875V44.0625C20.5 45.2625 21.4875 46.25 22.6875 46.25H48.3125C49.5125 46.25 50.5 45.2625 50.5 44.0625V27.1875C50.5 25.9875 49.5125 25 48.3125 25Z" fill="#00FEFF"/>
<path d="M40.3175 48.9325C38.6762 47.2913 38.6262 45.7 38.625 45.6213C38.624 45.4562 38.5577 45.2981 38.4406 45.1817C38.3235 45.0653 38.1651 45 38 45H32.975C32.63 45 32.35 45.2838 32.35 45.6288C32.35 45.6963 32.3275 47.2888 30.6837 48.9338C30.596 49.0209 30.5362 49.1322 30.5118 49.2535C30.4875 49.3747 30.4997 49.5005 30.547 49.6148C30.5943 49.7291 30.6745 49.8267 30.7774 49.8953C30.8803 49.9639 31.0013 50.0003 31.125 50H39.875C39.9988 50.0002 40.1198 49.9637 40.2228 49.895C40.3258 49.8264 40.4061 49.7287 40.4535 49.6143C40.5009 49.5 40.5132 49.3742 40.489 49.2528C40.4648 49.1314 40.4051 49.0199 40.3175 48.9325ZM45.3625 20.34C45.3026 20.2812 45.2317 20.2348 45.1538 20.2035C45.0759 20.1722 44.9927 20.1566 44.9087 20.1575C41.375 20.2238 37.2525 22.2863 34.635 25.2825C31.8037 25.3825 29.44 26.2363 27.9662 27.71C27.8876 27.7886 27.8313 27.8867 27.8032 27.9942C27.7752 28.1018 27.7763 28.2149 27.8064 28.3219C27.8366 28.4289 27.8948 28.5259 27.975 28.6029C28.0551 28.6799 28.1544 28.7341 28.2625 28.76L30.9237 29.3975L30.9075 29.415C30.8004 29.534 30.743 29.6895 30.7472 29.8495C30.7514 30.0095 30.8168 30.1618 30.93 30.275L35.4262 34.7713C35.4842 34.8295 35.5532 34.8757 35.6291 34.907C35.7051 34.9384 35.7866 34.9543 35.8687 34.9538C36.0187 34.9538 36.1675 34.9013 36.2862 34.7938L36.3037 34.7775L36.9412 37.4388C36.9668 37.5472 37.0209 37.6469 37.098 37.7274C37.175 37.8079 37.2721 37.8664 37.3794 37.8967C37.4866 37.927 37.6 37.9282 37.7078 37.9C37.8156 37.8717 37.9139 37.8152 37.9925 37.7363C39.4675 36.2613 40.32 33.8988 40.4212 31.0663C43.4212 28.44 45.48 24.3225 45.5462 20.7925C45.5474 20.7086 45.5318 20.6254 45.5002 20.5477C45.4686 20.4699 45.4218 20.3993 45.3625 20.34Z" fill="#00FEFF"/>
<path d="M28.9401 33.09C28.1014 33.9288 27.0276 37.4125 26.8214 38.1025C26.7899 38.2105 26.7881 38.325 26.8161 38.434C26.8441 38.5429 26.9009 38.6423 26.9805 38.7218C27.0601 38.8013 27.1597 38.8579 27.2687 38.8857C27.3777 38.9136 27.4921 38.9116 27.6001 38.88C28.2901 38.6738 31.7726 37.6013 32.6126 36.7613C33.0988 36.2738 33.3719 35.6135 33.3719 34.925C33.3719 34.2365 33.0988 33.5762 32.6126 33.0888C32.125 32.6027 31.4646 32.3298 30.7761 32.3301C30.0876 32.3303 29.4274 32.6036 28.9401 33.09Z" fill="#00FEFF"/>
</g>
<defs>
<filter id="filter0_i_24_2792" x="5.16675" y="5" width="60" height="60" filterUnits="userSpaceOnUse" color-interpolation-filters="sRGB">
<feFlood flood-opacity="0" result="BackgroundImageFix"/>
<feBlend mode="normal" in="SourceGraphic" in2="BackgroundImageFix" result="shape"/>
<feColorMatrix in="SourceAlpha" type="matrix" values="0 0 0 0 0 0 0 0 0 0 0 0 0 0 0 0 0 0 127 0" result="hardAlpha"/>
<feOffset/>
<feGaussianBlur stdDeviation="10.7"/>
<feComposite in2="hardAlpha" operator="arithmetic" k2="-1" k3="1"/>
<feColorMatrix type="matrix" values="0 0 0 0 0 0 0 0 0 0.996078 0 0 0 0 1 0 0 0 0.25 0"/>
<feBlend mode="normal" in2="shape" result="effect1_innerShadow_24_2792"/>
</filter>
<filter id="filter1_d_24_2792" x="0.4" y="-0.1" width="70.2" height="70.2" filterUnits="userSpaceOnUse" color-interpolation-filters="sRGB">
<feFlood flood-opacity="0" result="BackgroundImageFix"/>
<feColorMatrix in="SourceAlpha" type="matrix" values="0 0 0 0 0 0 0 0 0 0 0 0 0 0 0 0 0 0 127 0" result="hardAlpha"/>
<feOffset/>
<feGaussianBlur stdDeviation="10.05"/>
<feComposite in2="hardAlpha" operator="out"/>
<feColorMatrix type="matrix" values="0 0 0 0 0 0 0 0 0 0.996078 0 0 0 0 1 0 0 0 1 0"/>
<feBlend mode="normal" in2="BackgroundImageFix" result="effect1_dropShadow_24_2792"/>
<feBlend mode="normal" in="SourceGraphic" in2="effect1_dropShadow_24_2792" result="shape"/>
</filter>
</defs>
</svg>
