<svg width="31" height="30" viewBox="0 0 31 30" fill="none" xmlns="http://www.w3.org/2000/svg">
<path fill-rule="evenodd" clip-rule="evenodd" d="M15.5 2.8125C13.5938 2.8125 11.7656 3.56975 10.4177 4.91767C9.06978 6.26559 8.31252 8.09376 8.31252 10V11.2325L8.20252 14.2888C8.19754 14.4259 8.22271 14.5624 8.27627 14.6888C8.94502 16.2688 9.88877 17.805 11.0788 18.96C12.2713 20.1188 13.7663 20.94 15.5 20.94C17.2338 20.94 18.7288 20.1188 19.9213 18.96C21.1113 17.805 22.055 16.2688 22.7238 14.6888C22.7778 14.5625 22.8034 14.426 22.7988 14.2888L22.6863 11.2325V10C22.6863 8.09397 21.9292 6.26599 20.5815 4.91811C19.2339 3.57023 17.4061 2.81283 15.5 2.8125Z" fill="#FFDBA6"/>
<path fill-rule="evenodd" clip-rule="evenodd" d="M22.6875 10.9375V10C22.6875 8.09376 21.9303 6.26559 20.5823 4.91767C19.2344 3.56975 17.4062 2.8125 15.5 2.8125C13.5938 2.8125 11.7656 3.56975 10.4177 4.91767C9.06975 6.26559 8.3125 8.09376 8.3125 10V10.9375H9.76625C10.5268 10.9374 11.2772 10.7629 11.9598 10.4275C12.6424 10.092 13.239 9.60455 13.7038 9.0025L13.7562 8.93625C14.3631 9.56892 15.0916 10.0724 15.8981 10.4163C16.7045 10.7602 17.5721 10.9375 18.4488 10.9375H22.6875Z" fill="#486472"/>
<path fill-rule="evenodd" clip-rule="evenodd" d="M8.48119 21.5625C7.04472 21.5624 5.64117 21.9927 4.45161 22.7979C3.26205 23.6031 2.34105 24.7463 1.80744 26.08L1.56494 26.6875C1.43215 27.0194 1.38274 27.3789 1.42103 27.7343C1.45932 28.0898 1.58415 28.4304 1.78459 28.7264C1.98503 29.0225 2.25497 29.2649 2.57079 29.4324C2.88661 29.6 3.23868 29.6875 3.59619 29.6875H27.4037C27.7612 29.6875 28.1133 29.6 28.4291 29.4324C28.7449 29.2649 29.0148 29.0225 29.2153 28.7264C29.4157 28.4304 29.5406 28.0898 29.5788 27.7343C29.6171 27.3789 29.5677 27.0194 29.4349 26.6875L29.1924 26.08C28.6587 24.7461 27.7376 23.6028 26.5478 22.7976C25.3579 21.9923 23.9541 21.5621 22.5174 21.5625H8.48119Z" fill="#00FEFF"/>
<path fill-rule="evenodd" clip-rule="evenodd" d="M14.875 2.1875C13.1345 2.1875 11.4653 2.8789 10.2346 4.10961C9.0039 5.34032 8.3125 7.00952 8.3125 8.75H6.4375C6.4375 6.51224 7.32645 4.36613 8.90879 2.78379C10.4911 1.20145 12.6372 0.3125 14.875 0.3125H16.125C18.3628 0.3125 20.5089 1.20145 22.0912 2.78379C23.6736 4.36613 24.5625 6.51224 24.5625 8.75H22.6875C22.6875 5.125 19.75 2.1875 16.125 2.1875H14.875Z" fill="#3E5AFF"/>
<path fill-rule="evenodd" clip-rule="evenodd" d="M8.3125 29.6875V25C8.3125 24.7514 8.21373 24.5129 8.03791 24.3371C7.8621 24.1613 7.62364 24.0625 7.375 24.0625C7.12636 24.0625 6.8879 24.1613 6.71209 24.3371C6.53627 24.5129 6.4375 24.7514 6.4375 25V29.6875H8.3125ZM24.5625 29.6875V25C24.5625 24.7514 24.4637 24.5129 24.2879 24.3371C24.1121 24.1613 23.8736 24.0625 23.625 24.0625C23.3764 24.0625 23.1379 24.1613 22.9621 24.3371C22.7863 24.5129 22.6875 24.7514 22.6875 25V29.6875H24.5625Z" fill="#D7FFFF"/>
<path fill-rule="evenodd" clip-rule="evenodd" d="M21.5976 21.5625H9.46509L9.99509 22.8538C10.4382 23.9486 11.1976 24.8865 12.1764 25.5475C13.1552 26.2085 14.3089 26.5627 15.49 26.5647C16.6711 26.5667 17.826 26.2165 18.8071 25.5588C19.7881 24.9011 20.5508 23.9658 20.9976 22.8725L21.5976 21.5625Z" fill="#FFDBA6"/>
<path fill-rule="evenodd" clip-rule="evenodd" d="M22.4262 15.3501L21.6337 14.8376C21.6142 14.8247 21.5942 14.8126 21.5737 14.8013L18.3387 13.0413C17.4676 12.5671 16.4917 12.3187 15.4999 12.3187C14.5082 12.3187 13.5322 12.5671 12.6612 13.0413L9.42619 14.8001C9.36772 14.832 9.31283 14.8702 9.26244 14.9138L8.62744 15.4626C9.26244 16.7626 10.0837 17.9938 11.0774 18.9588C12.2712 20.1176 13.7649 20.9388 15.4999 20.9388C17.2337 20.9388 18.7287 20.1176 19.9212 18.9588C20.9449 17.9663 21.7849 16.6926 22.4262 15.3501Z" fill="#FAFAFA"/>
<path fill-rule="evenodd" clip-rule="evenodd" d="M6.75 7.8125C6.16984 7.8125 5.61344 8.04297 5.2032 8.4532C4.79297 8.86344 4.5625 9.41984 4.5625 10V13.75C4.5625 14.9575 5.5425 15.9375 6.75 15.9375H8C8.58016 15.9375 9.13656 15.707 9.5468 15.2968C9.95703 14.8866 10.1875 14.3302 10.1875 13.75V10C10.1875 9.41984 9.95703 8.86344 9.5468 8.4532C9.13656 8.04297 8.58016 7.8125 8 7.8125H6.75ZM20.8125 10C20.8125 8.7925 21.7925 7.8125 23 7.8125H24.25C25.4575 7.8125 26.4375 8.7925 26.4375 10V13.75C26.4375 14.3302 26.207 14.8866 25.7968 15.2968C25.3866 15.707 24.8302 15.9375 24.25 15.9375H23C22.4198 15.9375 21.8634 15.707 21.4532 15.2968C21.043 14.8866 20.8125 14.3302 20.8125 13.75V10Z" fill="#3E5AFF"/>
<path fill-rule="evenodd" clip-rule="evenodd" d="M23.625 14.0625C23.8736 14.0625 24.1121 14.1613 24.2879 14.3371C24.4637 14.5129 24.5625 14.7514 24.5625 15V16.25C24.5625 16.5373 24.5059 16.8217 24.396 17.0871C24.2861 17.3525 24.1249 17.5937 23.9218 17.7968C23.7187 17.9999 23.4775 18.1611 23.2121 18.271C22.9467 18.3809 22.6623 18.4375 22.375 18.4375H15.5C15.2514 18.4375 15.0129 18.3387 14.8371 18.1629C14.6613 17.9871 14.5625 17.7486 14.5625 17.5C14.5625 17.2514 14.6613 17.0129 14.8371 16.8371C15.0129 16.6613 15.2514 16.5625 15.5 16.5625H22.375C22.4579 16.5625 22.5374 16.5296 22.596 16.471C22.6546 16.4124 22.6875 16.3329 22.6875 16.25V15C22.6875 14.7514 22.7863 14.5129 22.9621 14.3371C23.1379 14.1613 23.3764 14.0625 23.625 14.0625Z" fill="#3E5AFF"/>
</svg>
