<svg width="84" height="124" viewBox="0 0 84 124" fill="none" xmlns="http://www.w3.org/2000/svg">
<path d="M69.7645 138.765C69.7645 138.765 56.3445 143.709 29.4551 135.799C9.87869 130.037 0.962402 120.745 0.962402 120.745C0.962402 120.745 3.77286 105.155 7.83651 96.7887C8.06342 96.319 8.303 95.8764 8.53452 95.4695C9.11504 94.4195 9.73011 93.5429 10.359 92.8814C15.7438 87.2923 29.3446 88.8033 45.5174 93.3376C61.6925 97.8682 74.6494 103.294 75.3313 112.223C75.3577 112.53 75.3658 112.849 75.367 113.186L75.3578 113.227L75.314 115.307C74.7657 124.679 69.7645 138.765 69.7645 138.765Z" fill="#7831F7"/>
<path d="M31.0218 75.5361L26.0264 97.2695C26.0264 97.2695 29.0165 104.47 40.483 106.891C51.9505 109.311 55.5454 106.752 55.5454 106.752L61.8263 84.1867L31.0218 75.5361Z" fill="#150151"/>
<path d="M10.0955 73.8457C10.0955 73.8457 19.7236 83.0777 47.7545 90.7103C75.7842 98.3453 84.8594 98.0945 84.8594 98.0945C84.8594 98.0945 109.494 62.2567 100.29 30.9691C91.0885 -0.318394 49.8347 -5.51536 32.7911 4.82939C3.25707 22.7649 10.0955 73.8457 10.0955 73.8457Z" fill="#7831F7"/>
<path d="M75.3143 115.307C74.2765 115.521 73.2307 115.755 72.2574 116.03C68.8871 116.987 65.6459 117.553 62.1466 117.781C55.1251 118.244 48.0575 117.537 41.2168 115.83C28.7863 112.68 17.2565 105.958 7.83569 96.7889C8.0626 96.3193 8.30219 95.8767 8.5337 95.4697C17.9925 104.312 29.4359 110.461 41.7985 113.296C48.5724 114.86 55.5789 115.322 62.4922 114.889C65.829 114.685 69.3467 114.465 72.649 113.89C73.5774 113.732 74.4666 113.48 75.365 113.186L75.3558 113.227L75.3143 115.307Z" fill="#150151"/>
<path d="M61.9276 124.934C61.7513 124.823 61.5509 124.767 61.3735 124.661C61.4726 124.72 61.2687 124.58 61.2434 124.566C61.1697 124.522 61.0913 124.478 61.0107 124.441C60.5569 124.227 60.1054 124.077 59.602 124.142C59.0653 124.212 58.5873 124.411 58.1519 124.754C57.7257 125.089 57.3398 125.463 57.1314 125.997C56.7893 126.88 56.7236 127.839 56.9298 128.772C57.1083 129.591 57.4112 130.373 58.0056 130.951C59.1885 132.108 60.9024 132.013 62.2167 131.177C63.5586 130.32 64.1494 128.58 63.7647 126.982C63.6438 126.469 63.4399 125.997 63.1151 125.595C62.8317 125.247 62.4735 124.952 62.1038 124.717C61.2365 124.169 60.1169 123.964 59.2519 124.629C58.9363 124.874 58.7508 125.225 58.8165 125.653C58.8729 126.038 59.1482 126.39 59.5168 126.477C59.7437 126.528 59.9764 126.59 60.1998 126.66C60.3185 126.698 60.4336 126.735 60.5534 126.763C60.6133 126.779 60.6732 126.795 60.732 126.814C61.0395 126.917 60.5338 126.709 60.725 126.805C60.8391 126.862 60.9508 126.918 61.0591 126.986C61.1132 127.019 61.1651 127.057 61.218 127.094C61.4173 127.223 60.9969 126.895 61.1766 127.057C61.3839 127.245 61.5728 127.452 61.7721 127.647C61.8181 127.689 61.8608 127.736 61.9034 127.783C61.916 127.799 61.931 127.812 61.9437 127.828C62.0151 127.913 61.9978 127.892 61.8965 127.758C61.908 127.849 62.0497 128 62.0923 128.087C62.1038 128.106 62.1119 128.123 62.1222 128.143C62.1648 128.237 62.1579 128.219 62.1038 128.087C62.1314 128.111 62.1568 128.233 62.1683 128.271C62.1867 128.331 62.204 128.395 62.2167 128.455C62.2259 128.497 62.2351 128.539 62.2409 128.582C62.2236 128.466 62.2201 128.455 62.2316 128.555C62.181 128.761 62.2777 128.379 62.2443 128.596C62.2339 128.668 62.2213 128.737 62.2051 128.804C62.189 128.873 62.1683 128.937 62.1499 129.003C62.2029 128.817 62.1429 129.022 62.1257 129.056C62.0715 129.18 62.0047 129.295 61.9322 129.409C62.0266 129.262 61.9068 129.441 61.8907 129.463C61.8343 129.533 61.7744 129.6 61.7145 129.664C61.6661 129.712 61.62 129.758 61.5693 129.804C61.6857 129.697 61.5198 129.841 61.506 129.851C61.3977 129.932 61.2871 130.004 61.1673 130.063C61.2998 129.997 61.1005 130.087 61.0902 130.089C61.028 130.115 60.9658 130.137 60.9024 130.158C60.8402 130.178 60.7746 130.195 60.7124 130.211C60.6698 130.221 60.6237 130.232 60.5822 130.238C60.6606 130.228 60.6571 130.227 60.573 130.238C60.4647 130.248 60.3576 130.259 60.2482 130.261C60.1825 130.26 60.1192 130.257 60.0535 130.254C59.8462 130.249 60.1929 130.292 59.9925 130.246C59.8669 130.219 59.7437 130.186 59.617 130.152C59.4223 130.096 59.746 130.229 59.5663 130.128C59.4891 130.088 59.412 130.051 59.3383 130C59.3164 129.988 59.1424 129.857 59.2795 129.967C59.2242 129.926 59.1712 129.878 59.1217 129.827C59.0699 129.777 59.0238 129.721 58.9754 129.669C58.8245 129.51 59.0422 129.788 58.9225 129.602C58.8441 129.477 58.7762 129.353 58.7059 129.222C58.6011 129.023 58.7451 129.365 58.6748 129.146C58.6437 129.053 58.6114 128.962 58.5861 128.866C58.5677 128.793 58.5504 128.722 58.5366 128.648C58.502 128.444 58.5124 128.775 58.5412 128.568C58.5516 128.498 58.547 128.416 58.5504 128.346C58.5424 128.576 58.5527 128.339 58.5585 128.295C58.57 128.223 58.5919 128.153 58.5999 128.08C58.6322 127.845 58.5066 128.257 58.6011 128.053C58.6207 128.011 58.8407 127.614 58.8372 127.612C58.8568 127.637 58.6725 127.821 58.8372 127.621C58.8983 127.546 58.9685 127.481 59.033 127.41C59.0503 127.393 59.0699 127.377 59.086 127.36C58.8741 127.539 58.9109 127.507 59.2 127.261C59.2715 127.194 59.3429 127.124 59.4108 127.052C59.5951 126.858 59.1712 127.222 59.3878 127.072C59.4673 127.014 59.5456 126.955 59.6297 126.903C59.678 126.873 59.784 126.84 59.8209 126.797C59.6354 126.88 59.6043 126.896 59.7264 126.842C59.8497 126.793 59.9706 126.737 60.0881 126.674C60.1514 126.638 60.2102 126.594 60.2735 126.557C60.3138 126.533 60.3553 126.512 60.3968 126.488C60.1607 126.6 60.2033 126.579 60.5246 126.428C60.6099 126.378 60.8276 126.172 60.9266 126.182C60.8932 126.198 60.8598 126.212 60.8276 126.227C60.8679 126.208 60.9117 126.19 60.9554 126.174C61.0372 126.141 61.1224 126.108 61.2077 126.088C61.1558 126.101 61.0499 126.08 61.1904 126.108C61.2848 126.129 61.3781 126.146 61.4703 126.173C62.1648 126.371 62.5426 125.313 61.9276 124.934Z" fill="#150151"/>
<path d="M68.986 54.5663C70.2357 48.4485 69.7209 41.9249 66.9668 36.0702C59.8612 20.9661 37.6759 20.2223 26.8879 30.8867C18.3275 39.3504 14.1141 52.6287 20.0921 64.0332C25.8051 74.9325 37.9489 79.9487 49.2149 77.0693C59.4339 74.4542 66.8321 65.1152 68.986 54.5663Z" fill="#150151"/>
<path d="M62.8363 54.1595C63.517 50.8178 63.2337 47.2548 61.7305 44.0569C57.8489 35.8035 45.7293 35.399 39.8366 41.223C35.1602 45.8458 32.86 53.0997 36.1254 59.3306C39.2457 65.285 45.8802 68.0267 52.0344 66.453C57.615 65.0243 61.6568 59.922 62.8363 54.1595Z" fill="#00D3F9"/>
<path d="M53.8886 53.1181C54.0948 52.1038 54.0096 51.0231 53.5535 50.0518C52.3763 47.5499 48.6997 47.4281 46.9109 49.1949C45.4918 50.5965 44.7938 52.7972 45.7832 54.6882C46.7312 56.493 48.7434 57.3266 50.6117 56.8471C52.3049 56.4143 53.5304 54.8664 53.8886 53.1181Z" fill="white"/>
<path d="M83.9808 50.9468C84.2008 51.9058 84.8954 52.7344 85.7351 53.1352C86.3398 53.418 86.9042 53.5127 87.5584 53.3799C88.0214 53.2902 88.4833 53.0824 88.8703 52.7947C89.7285 52.1603 90.408 51.1705 90.5543 50.0431C90.696 48.9514 90.4875 47.7907 89.8632 46.8907C89.1802 45.8986 88.2 45.2777 87.0343 45.2371C86.0081 45.2027 84.9588 45.7142 84.2907 46.5367C83.5892 47.3961 83.2091 48.5223 83.3796 49.662C83.5259 50.6308 84.0235 51.5295 84.7537 52.1307C85.1649 52.4676 85.6015 52.7172 86.1209 52.8008C86.2672 52.8279 86.4204 52.8475 86.569 52.8561C86.6589 52.8598 86.6485 52.9016 86.5275 52.8451C86.6036 52.8795 86.7475 52.8709 86.8339 52.8783C87.0551 52.8967 87.2704 52.8733 87.4881 52.8365C88.3785 52.684 89.1652 52.1394 89.7031 51.3697C90.2272 50.6173 90.6016 49.5907 90.3574 48.644C90.1788 47.9616 89.3472 47.76 88.9924 48.3932C88.8968 48.5677 88.8819 48.7386 88.8692 48.9317C88.8657 48.9784 88.8404 49.0829 88.8703 48.9243C88.8623 48.9698 88.8577 49.0165 88.8496 49.0608C88.8116 49.2575 88.7586 49.4554 88.7022 49.6448C88.6941 49.6755 88.6354 49.812 88.6849 49.7013C88.7344 49.5858 88.6711 49.7259 88.6584 49.753C88.6193 49.839 88.5789 49.9226 88.5317 50.0062C88.5133 50.0394 88.3693 50.2669 88.4292 50.182C88.4937 50.0886 88.4246 50.1869 88.4119 50.2017C88.3681 50.2546 88.3267 50.3087 88.2795 50.364C88.2196 50.4341 88.1516 50.4943 88.0894 50.5619C88.0583 50.5927 87.9604 50.6628 88.1055 50.5521C88.071 50.5779 88.0353 50.6087 87.9984 50.6345C87.9247 50.6886 87.8487 50.739 87.7727 50.7857C87.7323 50.8066 87.6932 50.8287 87.654 50.8496C87.7508 50.7943 87.7416 50.8177 87.646 50.8509C87.563 50.8841 87.479 50.9136 87.3926 50.937C87.3488 50.9505 87.3062 50.9566 87.2624 50.9701C87.1472 51.0058 87.411 50.9689 87.2912 50.9615C87.2037 50.9578 87.1104 50.9775 87.0205 50.9738C86.9768 50.9726 86.9307 50.9689 86.8869 50.9689C86.7856 50.9677 87.0701 51.0328 86.8915 50.9628C86.8547 50.9492 86.7936 50.9394 86.7625 50.9161C86.7763 50.9283 86.9641 51.0218 86.8109 50.9296C86.7326 50.8853 86.6531 50.8447 86.5771 50.7943C86.5391 50.7697 86.501 50.7439 86.463 50.7169C86.3939 50.6714 86.3294 50.6726 86.5137 50.7575C86.4193 50.7132 86.3248 50.6099 86.2384 50.5484C86.22 50.5324 86.2027 50.5214 86.1843 50.5066C86.1094 50.4513 86.1094 50.4513 86.1808 50.5091C86.1993 50.5226 86.2165 50.5349 86.2338 50.5509C86.2073 50.5287 86.182 50.5042 86.1567 50.4796C86.1233 50.4476 86.0887 50.4169 86.0541 50.3824C85.9896 50.3148 85.9286 50.246 85.8652 50.1747C85.6924 49.973 85.9608 50.3419 85.8238 50.1132C85.7708 50.021 85.7132 49.9312 85.666 49.8353C85.6694 49.8464 85.6061 49.7062 85.6038 49.7075C85.621 49.7025 85.6971 49.973 85.636 49.7739C85.6084 49.6853 85.5761 49.5944 85.5531 49.5009C85.5496 49.48 85.5289 49.3644 85.5231 49.3608C85.537 49.3694 85.5496 49.6534 85.5358 49.4456C85.5289 49.3362 85.5243 49.2317 85.522 49.121C85.5174 48.8407 85.4771 49.3534 85.5266 49.0583C85.5462 48.9575 85.575 48.8641 85.5992 48.7632C85.636 48.6096 85.4955 48.9845 85.5704 48.8468C85.5934 48.8013 85.6118 48.7534 85.6337 48.7116C85.6568 48.6661 85.6821 48.6219 85.7086 48.5776C85.8053 48.4153 85.7535 48.5468 85.6775 48.6132C85.7477 48.5518 85.803 48.4509 85.8664 48.3821C85.9343 48.3096 86.0184 48.2481 86.0818 48.1731C86.0622 48.1964 85.8537 48.3415 86.0173 48.2309C86.0576 48.2051 86.0956 48.1743 86.1371 48.1473C86.2304 48.0833 86.326 48.0305 86.4239 47.9764C86.4665 47.9543 86.5091 47.9321 86.5529 47.9051C86.6876 47.8252 86.3202 47.9997 86.4665 47.9444C86.5586 47.91 86.6473 47.8731 86.7395 47.8448C86.7809 47.8313 87.1012 47.7305 86.9007 47.7993C86.7349 47.8571 86.8639 47.8092 86.9238 47.8055C86.9837 47.8018 87.0424 47.7969 87.1034 47.7993C87.1276 47.7993 87.2175 47.8153 87.2474 47.8055C87.1011 47.8583 87.0033 47.7674 87.1403 47.7981C87.2371 47.8215 87.3292 47.8448 87.4236 47.8731C87.5699 47.9149 87.4098 47.9333 87.3327 47.8301C87.3476 47.851 87.449 47.8891 87.464 47.8965C87.5077 47.9198 87.5481 47.9456 87.5895 47.9739C87.6425 48.0059 87.7634 48.1448 87.6471 48.0034C87.5331 47.8645 87.6229 47.9825 87.6655 48.0219C87.7024 48.0551 87.7381 48.0907 87.7738 48.1264C87.8441 48.1965 87.9074 48.2751 87.9742 48.3514C88.0768 48.4706 87.8395 48.1473 87.9212 48.2838C87.9477 48.3268 87.9765 48.3698 88.0042 48.4128C88.0641 48.5112 88.1148 48.6157 88.1666 48.7177C88.2622 48.9009 88.1412 48.6723 88.1389 48.644C88.1424 48.6821 88.1781 48.7473 88.1908 48.7891C88.223 48.8886 88.2507 48.9907 88.2749 49.0903C88.2714 49.0792 88.3037 49.2427 88.306 49.2427C88.2898 49.2415 88.2772 48.9341 88.2922 49.1628C88.2991 49.2821 88.3106 49.3952 88.3082 49.5144C88.3082 49.5661 88.3048 49.6202 88.3036 49.6706C88.3025 49.8353 88.3428 49.4186 88.314 49.5796C88.2956 49.6829 88.2795 49.7849 88.2541 49.8857C88.2426 49.9374 88.2242 49.9878 88.2115 50.0394C88.1712 50.1993 88.3083 49.8132 88.2391 49.9644C88.1885 50.0763 88.1424 50.1845 88.0825 50.2927C88.056 50.3394 88.0272 50.3861 87.9996 50.4316C87.8947 50.6136 88.0134 50.3948 88.0387 50.3812C87.9708 50.4144 87.8902 50.5656 87.8349 50.6259C87.7992 50.6628 87.7588 50.7009 87.7243 50.7402C87.5826 50.8939 87.76 50.723 87.7727 50.7083C87.7128 50.7906 87.5688 50.8632 87.4859 50.9161C87.4421 50.9443 87.3983 50.9701 87.3522 50.9947C87.3073 51.0181 87.1656 51.0562 87.3096 51.0181C87.4593 50.9824 87.3027 51.0168 87.2612 51.0291C87.2129 51.0488 87.1656 51.0636 87.1173 51.0783C87.0677 51.0931 87.017 51.1042 86.9675 51.1177C86.8235 51.1583 87.1679 51.1005 87.0228 51.1066C86.9145 51.1115 86.8051 51.1287 86.6957 51.1398C86.6001 51.1496 86.5033 51.1546 86.4077 51.1521C86.3962 51.1521 86.2822 51.157 86.2649 51.1447C86.3317 51.1951 86.4412 51.1742 86.3145 51.1459C86.2188 51.1263 86.1255 51.1078 86.0299 51.0796C85.9862 51.0636 85.9401 51.0488 85.8963 51.0316C86.0127 51.0722 85.9793 51.0685 85.8837 51.0205C85.7984 50.9787 85.7132 50.9296 85.6314 50.8718C85.613 50.8595 85.4886 50.7722 85.5669 50.8312C85.6452 50.8927 85.5254 50.7943 85.5093 50.7796C85.4368 50.7132 85.3688 50.6431 85.3032 50.5669C85.2225 50.4759 85.3515 50.6419 85.2824 50.5398C85.2444 50.4894 85.2133 50.4341 85.1822 50.3788C84.7745 49.6878 83.8046 50.171 83.9808 50.9468Z" fill="#150151"/>
<path d="M82.2595 64.814C82.4795 65.7742 83.1706 66.6054 84.0149 67.0037C84.6196 67.2914 85.1828 67.3799 85.8371 67.2496C86.299 67.1586 86.7608 66.9533 87.1467 66.6656C88.0071 66.0288 88.6867 65.0378 88.8318 63.9153C88.9747 62.8186 88.7639 61.6617 88.143 60.7605C87.4588 59.7683 86.4798 59.1499 85.313 59.1081C84.2879 59.0712 83.2386 59.5839 82.567 60.4076C81.8679 61.2683 81.4866 62.392 81.6571 63.5317C81.8022 64.5005 82.3021 65.398 83.0301 66.0005C83.4401 66.3386 83.879 66.5845 84.3973 66.673C84.5459 66.6963 84.6968 66.7197 84.8465 66.7258C84.9375 66.7295 84.9271 66.7713 84.8051 66.7123C84.8822 66.7492 85.0251 66.7406 85.1138 66.748C85.3349 66.764 85.548 66.7431 85.7668 66.7074C86.6583 66.555 87.445 66.0091 87.9818 65.2407C88.5059 64.4907 88.8825 63.4592 88.636 62.5162C88.4575 61.8313 87.6259 61.6272 87.2711 62.2653C87.1755 62.435 87.1594 62.6083 87.1467 62.8038C87.1456 62.8469 87.1179 62.9538 87.149 62.7928C87.141 62.8395 87.1352 62.8862 87.126 62.9305C87.0903 63.1272 87.0373 63.3239 86.9797 63.5145C86.9705 63.5452 86.9117 63.6842 86.9636 63.571C87.0131 63.4592 86.9509 63.5969 86.9359 63.6227C86.8945 63.7087 86.8553 63.7948 86.8104 63.8772C86.792 63.9067 86.648 64.1366 86.709 64.0493C86.7712 63.962 86.701 64.0567 86.6917 64.069C86.648 64.1243 86.6054 64.1808 86.5581 64.2313C86.4959 64.3013 86.4303 64.3653 86.3658 64.4317C86.337 64.4624 86.2391 64.5349 86.3854 64.4206C86.3462 64.4489 86.3128 64.4784 86.2759 64.5054C86.2034 64.5595 86.1285 64.6087 86.0502 64.6542C86.011 64.68 85.9719 64.6984 85.9315 64.7218C86.0294 64.664 86.0191 64.6849 85.9246 64.723C85.8394 64.7538 85.7576 64.7857 85.6712 64.8079C85.6274 64.8189 85.5825 64.8251 85.5411 64.8374C85.4259 64.8731 85.6885 64.8374 85.5699 64.8312C85.48 64.8263 85.3879 64.8448 85.298 64.846C85.252 64.8448 85.2082 64.8374 85.1621 64.8374C85.0631 64.8386 85.3453 64.9025 85.1667 64.8337C85.1322 64.8189 85.0711 64.8079 85.04 64.7845C85.055 64.7968 85.2416 64.889 85.0884 64.8017C85.0112 64.755 84.9306 64.7144 84.8534 64.6665C84.8154 64.6394 84.7797 64.6112 84.7406 64.5866C84.6714 64.5411 84.6058 64.5435 84.7901 64.6284C84.6968 64.5866 84.6012 64.4808 84.5159 64.4181C84.4975 64.4034 84.4779 64.3923 84.4595 64.38C84.3858 64.3235 84.3869 64.3235 84.4595 64.38C84.4779 64.3948 84.4929 64.4083 84.5125 64.4206C84.4872 64.3972 84.4607 64.3751 84.433 64.353C84.4008 64.3185 84.365 64.2866 84.3316 64.2558C84.2648 64.187 84.2038 64.1157 84.1439 64.0456C83.9711 63.8464 84.2372 64.2116 84.1024 63.9829C84.0472 63.8932 83.9919 63.8022 83.9423 63.705C83.9469 63.7136 83.8847 63.5772 83.8824 63.576C83.8974 63.576 83.9746 63.844 83.9135 63.6473C83.887 63.5538 83.8548 63.4653 83.8318 63.3731C83.8272 63.3534 83.8064 63.2354 83.8018 63.2342C83.8156 63.2403 83.8283 63.5219 83.8145 63.3141C83.8076 63.2071 83.803 63.1002 83.803 62.992C83.7972 62.7104 83.7557 63.2219 83.8076 62.9329C83.826 62.8297 83.8548 62.7325 83.8801 62.6342C83.917 62.4792 83.7765 62.8542 83.8502 62.7153C83.8732 62.6723 83.894 62.6244 83.9158 62.5801C83.9389 62.5358 83.9642 62.4928 83.9884 62.4497C84.0863 62.2838 84.0322 62.419 83.9585 62.4842C84.0264 62.4215 84.0829 62.3219 84.1462 62.2518C84.213 62.1793 84.2982 62.119 84.3604 62.0416C84.342 62.0662 84.1335 62.2125 84.2959 62.1031C84.3374 62.076 84.3754 62.044 84.4169 62.0182C84.509 61.9555 84.6058 61.9014 84.7025 61.8461C84.7463 61.824 84.7889 61.8018 84.8304 61.776C84.9652 61.6936 84.5989 61.8707 84.744 61.8141C84.8361 61.7797 84.9237 61.7416 85.017 61.7145C85.0607 61.7022 85.381 61.6002 85.1783 61.6715C85.0112 61.7281 85.1414 61.6813 85.2024 61.6752C85.2623 61.6715 85.3222 61.6691 85.3821 61.6691C85.4052 61.6691 85.495 61.6862 85.5249 61.6752C85.3787 61.728 85.2808 61.6359 85.4201 61.6678C85.5157 61.69 85.6079 61.7133 85.7023 61.7416C85.8486 61.7871 85.6885 61.8043 85.609 61.6986C85.6252 61.7207 85.7288 61.76 85.7403 61.7662C85.7818 61.7908 85.8267 61.8153 85.8693 61.8399C85.9188 61.8731 86.0421 62.0157 85.9235 61.8707C85.8106 61.7305 85.9027 61.8523 85.9454 61.8916C85.9811 61.9248 86.0179 61.9592 86.0513 61.9949C86.1227 62.0674 86.1861 62.1436 86.2517 62.2199C86.3542 62.3367 86.1181 62.0158 86.2011 62.151C86.2264 62.1977 86.2575 62.2358 86.2828 62.2826C86.3427 62.3797 86.3934 62.4829 86.4464 62.5874C86.5397 62.7682 86.4199 62.5395 86.4164 62.5088C86.4211 62.5518 86.4568 62.6157 86.4695 62.6563C86.5017 62.7571 86.5293 62.8567 86.5535 62.9588C86.5501 62.9477 86.5823 63.1137 86.5835 63.1137C86.5708 63.1112 86.5547 62.8026 86.5708 63.0313C86.5777 63.1481 86.5892 63.2637 86.5881 63.3829C86.5869 63.437 86.5823 63.4862 86.5835 63.5403C86.5835 63.7038 86.6238 63.2858 86.595 63.4469C86.5742 63.5514 86.5604 63.6534 86.534 63.7567C86.5224 63.8059 86.504 63.8563 86.4902 63.9055C86.4521 64.0678 86.5892 63.6841 86.5201 63.8341C86.4683 63.9423 86.4199 64.0554 86.3612 64.1612C86.3347 64.2103 86.3082 64.2534 86.2794 64.3001C86.1746 64.4858 86.2921 64.262 86.3197 64.2497C86.2518 64.2829 86.17 64.4366 86.1147 64.4944C86.079 64.5337 86.0398 64.5694 86.0041 64.6087C85.8636 64.7649 86.0398 64.5952 86.0513 64.578C85.9926 64.6604 85.8521 64.7304 85.768 64.7821C85.7231 64.8103 85.677 64.8386 85.6344 64.8607C85.5895 64.8866 85.4478 64.9222 85.5906 64.8866C85.7392 64.8497 85.5825 64.8829 85.5434 64.9001C85.495 64.9173 85.4443 64.9333 85.3971 64.948C85.3476 64.9628 85.2957 64.9702 85.2474 64.9849C85.1034 65.028 85.4489 64.9677 85.3038 64.9739C85.1944 64.9788 85.0861 64.996 84.9767 65.0046C84.8811 65.0157 84.7843 65.0218 84.6875 65.0193C84.676 65.0193 84.5632 65.0267 84.5447 65.012C84.6127 65.0636 84.7233 65.0402 84.5943 65.0157C84.4987 64.9935 84.4054 64.9763 84.3109 64.9443C84.2648 64.932 84.2188 64.9161 84.175 64.8989C84.2913 64.9394 84.2602 64.937 84.1646 64.889C84.0759 64.8448 83.993 64.7944 83.9112 64.7415C83.894 64.7292 83.7684 64.6407 83.8479 64.6985C83.9262 64.7587 83.8041 64.664 83.788 64.6468C83.7143 64.5804 83.6475 64.5091 83.583 64.4341C83.5035 64.3431 83.6313 64.5116 83.5599 64.4071C83.5242 64.3542 83.492 64.3013 83.4597 64.2485C83.0554 63.5563 82.0821 64.0407 82.2595 64.814Z" fill="#150151"/>
<path d="M78.2676 78.4451C78.4865 79.4053 79.1787 80.2352 80.0218 80.6336C80.6266 80.9188 81.1898 81.011 81.844 80.8795C82.3059 80.7897 82.7667 80.5832 83.1548 80.2955C84.0129 79.6586 84.6925 78.6689 84.8388 77.5452C84.9805 76.4497 84.7708 75.2915 84.1488 74.3903C83.4658 73.3981 82.4856 72.7797 81.32 72.7392C80.2937 72.7011 79.2444 73.215 78.5763 74.0362C77.876 74.8981 77.4947 76.0231 77.6664 77.1628C77.8115 78.1304 78.3102 79.0304 79.0382 79.6328C79.4494 79.9684 79.8859 80.2156 80.4054 80.3016C80.5529 80.3275 80.7049 80.3483 80.8535 80.3557C80.9445 80.3594 80.9341 80.4036 80.812 80.3446C80.888 80.3791 81.0343 80.3693 81.1184 80.3754C81.3418 80.3963 81.5538 80.3754 81.7738 80.336C82.6641 80.1848 83.4508 79.6389 83.9864 78.8717C84.5117 78.1193 84.8883 77.0902 84.6407 76.1448C84.4633 75.46 83.6317 75.2583 83.2781 75.894C83.1802 76.0661 83.164 76.2407 83.1537 76.4337C83.1502 76.4792 83.1237 76.5862 83.156 76.4251C83.1468 76.4718 83.141 76.5198 83.1318 76.564C83.0961 76.7583 83.0419 76.955 82.9855 77.1456C82.9763 77.1788 82.9176 77.314 82.9671 77.2033C83.0189 77.0902 82.9532 77.2279 82.9406 77.255C82.8991 77.3386 82.86 77.4247 82.8127 77.5083C82.7966 77.539 82.6503 77.7677 82.7102 77.6829C82.7747 77.5919 82.7056 77.689 82.6952 77.7025C82.6492 77.7566 82.6066 77.8132 82.5616 77.8636C82.5006 77.9337 82.4326 77.9951 82.3693 78.0628C82.3405 78.0947 82.2414 78.166 82.3865 78.0529C82.3508 78.08 82.3163 78.1082 82.2794 78.1353C82.2069 78.1894 82.1309 78.2398 82.0537 78.2865C82.0145 78.3099 81.9742 78.3283 81.935 78.3517C82.0318 78.2976 82.0214 78.3185 81.9281 78.3541C81.8429 78.3836 81.7611 78.4156 81.6747 78.4377C81.6321 78.4513 81.586 78.4586 81.5446 78.4697C81.4294 78.5066 81.6932 78.4697 81.5745 78.4623C81.4847 78.4587 81.3902 78.4771 81.3027 78.4771C81.2578 78.4759 81.2105 78.4697 81.1668 78.4685C81.0677 78.4697 81.3511 78.5336 81.1714 78.4635C81.1345 78.45 81.0746 78.4402 81.0458 78.4168C81.0597 78.4304 81.2451 78.5201 81.0931 78.4328C81.0136 78.3861 80.9352 78.3455 80.8581 78.2964C80.8189 78.2718 80.7821 78.2435 80.744 78.2189C80.6749 78.1734 80.6104 78.1746 80.7947 78.2607C80.7014 78.2177 80.607 78.1132 80.5229 78.0504C80.5033 78.0369 80.4837 78.0246 80.4665 78.0099C80.3927 77.9533 80.3904 77.9521 80.4642 78.0111C80.4837 78.0247 80.4999 78.0382 80.5183 78.0529C80.4918 78.0283 80.4653 78.0074 80.4388 77.9828C80.4066 77.9496 80.3708 77.9189 80.3386 77.8857C80.2706 77.8193 80.2108 77.748 80.1462 77.6767C79.9758 77.4775 80.243 77.8427 80.1059 77.6152C80.0529 77.5218 79.9954 77.4333 79.947 77.3374C79.9516 77.3472 79.8894 77.2083 79.8871 77.2083C79.9021 77.207 79.9781 77.4763 79.9182 77.2784C79.8905 77.1861 79.8583 77.0976 79.8364 77.003C79.8318 76.9845 79.8111 76.8677 79.8065 76.864C79.8203 76.8689 79.833 77.1554 79.8191 76.9476C79.8122 76.8394 79.8088 76.7313 79.8053 76.6231C79.8018 76.3415 79.7592 76.8517 79.8122 76.5616C79.8295 76.462 79.8583 76.3648 79.8836 76.2653C79.9205 76.1103 79.78 76.4866 79.8537 76.3477C79.8767 76.3034 79.8963 76.2579 79.9205 76.2124C79.9435 76.1681 79.9677 76.1239 79.9931 76.0808C80.091 75.9161 80.0368 76.0501 79.9608 76.1141C80.0322 76.0538 80.0875 75.9542 80.1509 75.8854C80.2177 75.8116 80.3041 75.7514 80.3651 75.6751C80.3444 75.6973 80.1382 75.8435 80.3017 75.7341C80.3421 75.7083 80.3812 75.6776 80.4204 75.6505C80.5137 75.5878 80.6104 75.5337 80.7072 75.4784C80.7498 75.4563 80.7947 75.4354 80.8362 75.4083C80.971 75.3272 80.6047 75.5018 80.7498 75.4452C80.8408 75.4132 80.9295 75.3751 81.0228 75.3493C81.0643 75.3358 81.3879 75.2313 81.184 75.3026C81.0182 75.3592 81.1472 75.3124 81.2082 75.3075C81.2658 75.3026 81.328 75.3014 81.3856 75.3026C81.4098 75.3014 81.502 75.3174 81.5296 75.3088C81.3833 75.3592 81.2854 75.2682 81.4248 75.3014C81.5181 75.3223 81.6125 75.3468 81.707 75.3751C81.8533 75.4194 81.692 75.4354 81.6148 75.3321C81.6298 75.353 81.7312 75.3924 81.745 75.3997C81.7888 75.4243 81.8302 75.4477 81.8717 75.4735C81.9247 75.5067 82.0468 75.6481 81.9293 75.5042C81.8153 75.3641 81.9062 75.4858 81.9477 75.5251C81.9869 75.5583 82.0226 75.5915 82.056 75.6272C82.1285 75.6973 82.1896 75.7759 82.2564 75.8534C82.3589 75.9714 82.1228 75.6493 82.2046 75.7833C82.2311 75.8276 82.2621 75.8694 82.2875 75.9124C82.3485 76.0145 82.3981 76.1165 82.4522 76.2185C82.5455 76.4017 82.4257 76.1718 82.4223 76.1423C82.4269 76.1817 82.4603 76.2468 82.4741 76.2886C82.5063 76.387 82.5351 76.4878 82.5582 76.5911C82.5547 76.58 82.5881 76.7448 82.5881 76.7448C82.5754 76.7423 82.5593 76.4325 82.5754 76.6624C82.5824 76.7816 82.5927 76.8972 82.5939 77.0153C82.5927 77.0681 82.587 77.1185 82.587 77.1714C82.587 77.3374 82.6273 76.9169 82.5973 77.0792C82.5789 77.1825 82.5651 77.2857 82.5386 77.3866C82.5271 77.4357 82.5075 77.4849 82.4948 77.5378C82.4568 77.7001 82.5916 77.3152 82.5248 77.4652C82.4729 77.5759 82.4257 77.6866 82.3658 77.7947C82.3416 77.8402 82.3128 77.8857 82.284 77.9336C82.1792 78.1144 82.2979 77.8943 82.3232 77.8808C82.2541 77.9152 82.1746 78.0664 82.1193 78.1255C82.0825 78.166 82.0456 78.2029 82.0088 78.241C81.8671 78.3947 82.0433 78.225 82.0571 78.2066C81.9972 78.2914 81.8533 78.3627 81.7703 78.4156C81.7277 78.4426 81.6828 78.4697 81.639 78.4943C81.5929 78.5189 81.4524 78.5545 81.5952 78.5177C81.745 78.4832 81.5883 78.5152 81.548 78.5312C81.4996 78.5484 81.4501 78.5632 81.4006 78.5791C81.3522 78.5939 81.3015 78.6025 81.2532 78.6172C81.1115 78.6603 81.4547 78.6025 81.3096 78.6074C81.199 78.6099 81.0908 78.6295 80.9813 78.6394C80.8857 78.6492 80.789 78.6553 80.6922 78.6541C80.6807 78.6517 80.5667 78.6578 80.5505 78.6443C80.6196 78.6959 80.7268 78.6738 80.5989 78.6468C80.5045 78.6271 80.41 78.6074 80.3179 78.5791C80.2718 78.5632 80.228 78.5472 80.182 78.5312C80.2983 78.573 80.2672 78.5693 80.1716 78.5201C80.0841 78.4783 79.9988 78.4291 79.9182 78.3738C79.8986 78.3603 79.7765 78.2718 79.8548 78.332C79.9332 78.391 79.8111 78.2951 79.7949 78.2816C79.7224 78.2152 79.6556 78.1427 79.5911 78.0664C79.5116 77.9755 79.6383 78.1402 79.568 78.0406C79.5312 77.9878 79.4989 77.9312 79.4678 77.8771C79.0612 77.1874 78.0879 77.673 78.2676 78.4451Z" fill="#150151"/>
</svg>
