<svg width="25" height="24" viewBox="0 0 25 24" fill="none" xmlns="http://www.w3.org/2000/svg">
<path d="M7.5001 10.9981H15.0901L11.7901 7.70811C11.6018 7.51981 11.496 7.26441 11.496 6.99811C11.496 6.73181 11.6018 6.47641 11.7901 6.28811C11.9784 6.09981 12.2338 5.99402 12.5001 5.99402C12.7664 5.99402 13.0218 6.09981 13.2101 6.28811L18.2101 11.2881C18.3011 11.3832 18.3725 11.4954 18.4201 11.6181C18.5201 11.8616 18.5201 12.1346 18.4201 12.3781C18.3725 12.5009 18.3011 12.613 18.2101 12.7081L13.2101 17.7081C13.1171 17.8018 13.0065 17.8762 12.8847 17.927C12.7628 17.9778 12.6321 18.0039 12.5001 18.0039C12.3681 18.0039 12.2374 17.9778 12.1155 17.927C11.9937 17.8762 11.8831 17.8018 11.7901 17.7081C11.6964 17.6151 11.622 17.5045 11.5712 17.3827C11.5204 17.2608 11.4943 17.1301 11.4943 16.9981C11.4943 16.8661 11.5204 16.7354 11.5712 16.6135C11.622 16.4917 11.6964 16.3811 11.7901 16.2881L15.0901 12.9981H7.5001C7.23489 12.9981 6.98053 12.8928 6.793 12.7052C6.60546 12.5177 6.5001 12.2633 6.5001 11.9981C6.5001 11.7329 6.60546 11.4785 6.793 11.291C6.98053 11.1035 7.23489 10.9981 7.5001 10.9981Z" fill="white"/>
</svg>
