<svg width="71" height="71" viewBox="0 0 71 71" fill="none" xmlns="http://www.w3.org/2000/svg">
<g filter="url(#filter0_i_24_2796)">
<rect x="6.3335" y="6.5" width="59" height="59" rx="13.5" stroke="#908EC3"/>
</g>
<g filter="url(#filter1_d_24_2796)">
<path d="M44.25 40.1075H50.5V36.1338C50.5002 35.9331 50.4359 35.7377 50.3166 35.5763C50.1974 35.4149 50.0294 35.2962 49.8375 35.2375L44.25 33.5275V40.1075ZM41.75 40.1075V33.5275L36.1625 35.2375C35.9706 35.2962 35.8026 35.4149 35.6834 35.5763C35.5641 35.7377 35.4998 35.9331 35.5 36.1338V40.1075H41.75ZM44.25 42.6075V50.4725C45.9912 49.4975 49.7675 46.915 50.4038 42.6075H44.25ZM41.75 42.6075H35.5962C36.2312 46.915 40.0088 49.4975 41.75 50.4725V42.6075ZM44.25 21H24.25C23.2554 21 22.3016 21.3951 21.5983 22.0983C20.8951 22.8016 20.5 23.7554 20.5 24.75C20.5 25.7446 20.8951 26.6984 21.5983 27.4017C22.3016 28.1049 23.2554 28.5 24.25 28.5H44.25C45.2446 28.5 46.1984 28.1049 46.9017 27.4017C47.6049 26.6984 48 25.7446 48 24.75C48 23.7554 47.6049 22.8016 46.9017 22.0983C46.1984 21.3951 45.2446 21 44.25 21ZM24.25 26C23.9185 26 23.6005 25.8683 23.3661 25.6339C23.1317 25.3995 23 25.0815 23 24.75C23 24.4185 23.1317 24.1005 23.3661 23.8661C23.6005 23.6317 23.9185 23.5 24.25 23.5C24.5815 23.5 24.8995 23.6317 25.1339 23.8661C25.3683 24.1005 25.5 24.4185 25.5 24.75C25.5 25.0815 25.3683 25.3995 25.1339 25.6339C24.8995 25.8683 24.5815 26 24.25 26ZM29.25 26C28.9185 26 28.6005 25.8683 28.3661 25.6339C28.1317 25.3995 28 25.0815 28 24.75C28 24.4185 28.1317 24.1005 28.3661 23.8661C28.6005 23.6317 28.9185 23.5 29.25 23.5C29.5815 23.5 29.8995 23.6317 30.1339 23.8661C30.3683 24.1005 30.5 24.4185 30.5 24.75C30.5 25.0815 30.3683 25.3995 30.1339 25.6339C29.8995 25.8683 29.5815 26 29.25 26Z" fill="#00FEFF"/>
<path d="M24.25 31C22.175 31 20.5 32.675 20.5 34.75C20.5 36.825 22.175 38.5 24.25 38.5H33V36.675C33 35.2 33.9375 33.8875 35.3375 33.4125L41.8875 31.1875C42.25 31.0625 42.625 31 43 31H24.25ZM24.25 36C23.5625 36 23 35.4375 23 34.75C23 34.0625 23.5625 33.5 24.25 33.5C24.9375 33.5 25.5 34.0625 25.5 34.75C25.5 35.4375 24.9375 36 24.25 36ZM29.25 36C28.5625 36 28 35.4375 28 34.75C28 34.0625 28.5625 33.5 29.25 33.5C29.9375 33.5 30.5 34.0625 30.5 34.75C30.5 35.4375 29.9375 36 29.25 36ZM33 41.6875V41H24.25C22.175 41 20.5 42.675 20.5 44.75C20.5 46.825 22.175 48.5 24.25 48.5H35.4625C34.025 46.675 33 44.3875 33 41.6875ZM24.25 46C23.5625 46 23 45.4375 23 44.75C23 44.0625 23.5625 43.5 24.25 43.5C24.9375 43.5 25.5 44.0625 25.5 44.75C25.5 45.4375 24.9375 46 24.25 46ZM29.25 46C28.5625 46 28 45.4375 28 44.75C28 44.0625 28.5625 43.5 29.25 43.5C29.9375 43.5 30.5 44.0625 30.5 44.75C30.5 45.4375 29.9375 46 29.25 46Z" fill="#00FEFF"/>
</g>
<defs>
<filter id="filter0_i_24_2796" x="5.8335" y="6" width="60" height="60" filterUnits="userSpaceOnUse" color-interpolation-filters="sRGB">
<feFlood flood-opacity="0" result="BackgroundImageFix"/>
<feBlend mode="normal" in="SourceGraphic" in2="BackgroundImageFix" result="shape"/>
<feColorMatrix in="SourceAlpha" type="matrix" values="0 0 0 0 0 0 0 0 0 0 0 0 0 0 0 0 0 0 127 0" result="hardAlpha"/>
<feOffset/>
<feGaussianBlur stdDeviation="10.7"/>
<feComposite in2="hardAlpha" operator="arithmetic" k2="-1" k3="1"/>
<feColorMatrix type="matrix" values="0 0 0 0 0 0 0 0 0 0.996078 0 0 0 0 1 0 0 0 0.25 0"/>
<feBlend mode="normal" in2="shape" result="effect1_innerShadow_24_2796"/>
</filter>
<filter id="filter1_d_24_2796" x="0.4" y="0.9" width="70.2" height="70.2" filterUnits="userSpaceOnUse" color-interpolation-filters="sRGB">
<feFlood flood-opacity="0" result="BackgroundImageFix"/>
<feColorMatrix in="SourceAlpha" type="matrix" values="0 0 0 0 0 0 0 0 0 0 0 0 0 0 0 0 0 0 127 0" result="hardAlpha"/>
<feOffset/>
<feGaussianBlur stdDeviation="10.05"/>
<feComposite in2="hardAlpha" operator="out"/>
<feColorMatrix type="matrix" values="0 0 0 0 0 0 0 0 0 0.996078 0 0 0 0 1 0 0 0 1 0"/>
<feBlend mode="normal" in2="BackgroundImageFix" result="effect1_dropShadow_24_2796"/>
<feBlend mode="normal" in="SourceGraphic" in2="effect1_dropShadow_24_2796" result="shape"/>
</filter>
</defs>
</svg>
