<svg width="31" height="30" viewBox="0 0 31 30" fill="none" xmlns="http://www.w3.org/2000/svg">
<path d="M23.8299 13.5498C23.8296 13.724 23.7602 13.8909 23.6369 14.014C23.5136 14.137 23.3466 14.2061 23.1724 14.2061H21.3449V15.3786H23.1737C23.2622 15.3747 23.3505 15.3888 23.4335 15.42C23.5164 15.4512 23.5921 15.4989 23.6561 15.5602C23.7201 15.6214 23.771 15.695 23.8058 15.7765C23.8406 15.858 23.8585 15.9456 23.8585 16.0342C23.8585 16.1228 23.8406 16.2105 23.8058 16.292C23.771 16.3734 23.7201 16.447 23.6561 16.5083C23.5921 16.5695 23.5164 16.6172 23.4335 16.6484C23.3505 16.6796 23.2622 16.6937 23.1737 16.6898H20.6874C20.5143 16.6885 20.3488 16.619 20.2266 16.4964C20.1044 16.3738 20.0356 16.2079 20.0349 16.0348V11.0648C20.0349 10.7061 20.3287 10.4086 20.6912 10.4086H23.1762C23.3432 10.4192 23.4999 10.4931 23.6143 10.6153C23.7287 10.7375 23.7922 10.8987 23.7919 11.066C23.7916 11.2334 23.7275 11.3943 23.6126 11.5161C23.4977 11.6378 23.3407 11.7111 23.1737 11.7211H21.3449V12.8936H23.1737C23.5362 12.8936 23.8299 13.1898 23.8299 13.5498ZM18.7062 16.6561C18.639 16.6773 18.569 16.6878 18.4987 16.6873C18.3958 16.6896 18.2938 16.6672 18.2014 16.622C18.109 16.5767 18.0287 16.51 17.9674 16.4273L15.4224 12.9723V16.0348C15.4099 16.1998 15.3355 16.354 15.2142 16.4665C15.0929 16.579 14.9335 16.6415 14.768 16.6415C14.6026 16.6415 14.4432 16.579 14.3219 16.4665C14.2005 16.354 14.1262 16.1998 14.1137 16.0348V11.0648C14.1133 10.892 14.1816 10.7261 14.3034 10.6035C14.4253 10.481 14.5908 10.4118 14.7637 10.4111C14.9662 10.4111 15.1537 10.5186 15.2787 10.6748L17.8437 14.1436V11.0648C17.8437 10.7061 18.1374 10.4086 18.4999 10.4086C18.8587 10.4086 19.1562 10.7061 19.1562 11.0648V16.0348C19.156 16.1726 19.1124 16.3067 19.0316 16.4182C18.9508 16.5298 18.837 16.613 18.7062 16.6561ZM12.5187 16.6898C12.3454 16.6889 12.1795 16.6195 12.057 16.4968C11.9346 16.3742 11.8656 16.2081 11.8649 16.0348V11.0648C11.8649 10.7061 12.1587 10.4086 12.5212 10.4086C12.8824 10.4086 13.1762 10.7061 13.1762 11.0648V16.0348C13.1752 16.2087 13.1055 16.3751 12.9823 16.4978C12.8592 16.6205 12.6925 16.6895 12.5187 16.6898ZM10.6062 16.6898H8.12366C7.95013 16.6889 7.78397 16.6196 7.66115 16.497C7.53832 16.3744 7.46872 16.2084 7.46741 16.0348V11.0648C7.46741 10.7061 7.76491 10.4086 8.12366 10.4086C8.48616 10.4086 8.77991 10.7061 8.77991 11.0648V15.3773H10.6099C10.784 15.3773 10.9509 15.4465 11.074 15.5696C11.197 15.6926 11.2662 15.8595 11.2662 16.0336C11.2662 16.2076 11.197 16.3746 11.074 16.4976C10.9509 16.6207 10.784 16.6898 10.6099 16.6898M15.5037 3.21484C8.61241 3.21484 3.00366 7.76859 3.00366 13.3623C3.00366 18.3748 7.45116 22.5736 13.4574 23.3711C13.8637 23.4561 14.4187 23.6398 14.5587 23.9861C14.6837 24.2986 14.6412 24.7836 14.5987 25.1111L14.4274 26.1736C14.3812 26.4861 14.1774 27.4086 15.5199 26.8448C16.8649 26.2836 22.7249 22.5973 25.3499 19.5798C27.1424 17.6111 27.9999 15.5961 27.9999 13.3623C27.9999 7.76859 22.3899 3.21484 15.4999 3.21484" fill="white"/>
</svg>
