<svg width="91" height="127" viewBox="0 0 91 127" fill="none" xmlns="http://www.w3.org/2000/svg">
<path d="M53.6492 20.393C53.6492 20.393 62.593 26.6322 62.5945 26.6354C62.5423 26.5739 64.4204 23.8995 70.684 18.7467C72.8642 16.9531 75.8114 15.6236 78.3611 14.7087C89.4739 10.7261 101.699 16.4547 108.437 27.6216C113.807 36.5199 113.377 45.1107 113.377 45.1107C113.377 45.1107 118.407 30.0958 110.948 19.3304C103.49 8.56545 88.7065 -0.554556 79.3044 1.57626C69.9015 3.70567 53.6492 20.393 53.6492 20.393Z" fill="#EDE735"/>
<path d="M102.504 66.9946C102.522 67.0123 99.406 69.875 99.4218 69.9001C101.531 73.2389 104.035 76.4957 106.045 79.9183C106.923 81.4151 107.193 82.1153 107.908 83.7309C111.253 81.2767 120.446 73.4723 124.57 59.8004C130.412 40.4382 112.797 17.3738 107.936 11.8576C103.076 6.34189 92.174 1.57062 88.9304 0.133926C85.6867 -1.3023 107.572 8.89803 111.708 26.6438C115.843 44.3895 110.198 55.1452 107.259 60.7121C105.699 63.6679 103.875 65.7154 102.504 66.9946Z" fill="#EDE735"/>
<path d="M44.8819 36.748C44.8819 36.748 39.2845 35.0616 34.5427 38.8229C29.8016 42.5833 24.627 48.1013 23.5539 58.2649C22.4808 68.4265 29.2243 76.4066 32.536 78.3916C35.8465 80.3766 48.3551 63.4624 48.3551 63.4624C48.3551 63.4624 48.6264 36.9749 44.8819 36.748Z" fill="#EDE735"/>
<path d="M72.5298 68.1014C72.5298 68.1014 76.7113 61.3037 72.5805 50.3916C68.4496 39.4789 54.022 33.9935 46.2289 35.6114C38.4363 37.2293 29.9782 47.0332 26.6387 56.1444C23.2984 65.256 26.0084 72.166 32.9343 80.113C39.8595 88.0619 45.3664 92.7893 48.2797 93.0521C51.193 93.3158 72.5298 68.1014 72.5298 68.1014Z" fill="#00D3F9"/>
<path d="M96.6594 97.2821C96.6594 97.2821 98.1038 77.3063 89.7157 68.0521C81.3295 58.797 71.1815 63.1886 62.4398 67.665C53.6973 72.1409 43.6236 80.8896 44.1673 92.1083C44.7118 103.326 50.7659 114.006 57.6057 120.512C64.4477 127.017 69.7181 125.292 76.6487 122.707C83.5792 120.124 96.6594 97.2821 96.6594 97.2821Z" fill="#00D3F9"/>
<path d="M86.004 121.319C82.4265 123.13 74.3842 126.971 68.5267 126.251C67.733 126.149 66.976 125.966 66.2874 125.675C65.5172 125.382 64.8232 124.945 64.2134 124.372C59.0095 119.423 53.4445 105.962 53.46 99.2415C53.4673 92.5164 61.4339 87.0613 67.5444 83.4416C73.6488 79.8322 82.9099 75.8203 88.1977 80.2514C93.4821 84.691 96.2833 91.5815 97.6164 101.26C97.8027 102.614 97.7989 103.957 97.6331 105.237C97.6277 105.247 97.6277 105.247 97.6358 105.254C97.4681 106.574 97.1458 107.843 96.6894 109.063C96.6836 109.071 96.691 109.077 96.691 109.077C94.4663 115.078 89.2824 119.653 86.004 121.319Z" fill="#EDE735"/>
<path d="M13.9662 93.2143C15.3241 91.4617 16.19 88.6932 16.5594 86.6802C17.0127 84.2144 16.9335 81.6406 16.403 79.2019C15.4327 74.7362 13.0298 69.2224 8.92291 68.2226C5.48025 67.3841 2.0936 70.3697 0.891041 74.1446C-0.533325 78.62 0.574952 83.7355 2.58939 87.6729C3.89976 90.2295 5.73762 92.4214 7.93793 93.8478C9.24637 94.6975 10.8917 95.3101 12.3405 94.6165C12.9433 94.3277 13.4858 93.8357 13.9662 93.2143Z" fill="#00D3F9"/>
<path d="M5.9576 74.9556C5.95876 74.957 5.95949 74.957 5.96104 74.9584C6.12257 75.1028 6.30342 75.1872 6.50205 75.2142C6.69449 75.2393 6.88114 75.2049 7.05928 75.1168C7.24476 75.0199 7.39508 74.8755 7.51641 74.6803C7.61341 74.5368 7.67138 74.377 7.69496 74.1977C7.74094 74.0323 7.75097 73.8609 7.72199 73.6871C7.69416 73.4528 7.61919 73.2436 7.49901 73.0554C7.37265 72.8644 7.21386 72.7233 7.02451 72.6315C6.84135 72.5481 6.65394 72.5229 6.45879 72.5579C6.4584 72.557 6.45684 72.5574 6.45568 72.5588C6.36371 72.5891 6.27252 72.6198 6.18171 72.6515C6.09978 72.7093 6.0167 72.7698 5.93439 72.8276C5.86406 72.9138 5.7949 72.9986 5.72651 73.0857C5.6299 73.2282 5.57194 73.3899 5.54914 73.5669C5.51282 73.6778 5.50315 73.7896 5.51707 73.9061C5.50779 74.0225 5.52091 74.1343 5.55801 74.2419C5.57269 74.3589 5.61056 74.4642 5.66891 74.5564C5.73499 74.719 5.83046 74.8517 5.9576 74.9556Z" fill="#7831F7"/>
<path d="M11.0045 76.2572C11.035 76.2749 11.0659 76.2917 11.0957 76.308C11.1707 76.3285 11.2444 76.3508 11.3186 76.3732C11.4346 76.3932 11.5462 76.3788 11.6541 76.3299C11.7302 76.3164 11.7998 76.2814 11.8608 76.2232C11.9682 76.1608 12.0567 76.069 12.1255 75.9484C12.1637 75.865 12.2024 75.7802 12.2399 75.6977C12.258 75.6092 12.2766 75.5193 12.2936 75.4294C12.311 75.2901 12.299 75.1555 12.26 75.0246C12.2368 74.8881 12.1873 74.7665 12.1124 74.6556C12.0896 74.6263 12.0671 74.5969 12.0447 74.5652C11.9423 74.4082 11.8129 74.2936 11.6583 74.22C11.5095 74.1525 11.3557 74.1315 11.1992 74.1585C11.125 74.1842 11.0493 74.2093 10.9763 74.234C10.8263 74.3118 10.7019 74.4301 10.6049 74.5885C10.5261 74.7055 10.4778 74.8364 10.4596 74.9817C10.4214 75.1168 10.4144 75.2561 10.4357 75.3991C10.4592 75.5882 10.5218 75.7587 10.618 75.9115C10.7212 76.0681 10.8507 76.1836 11.0045 76.2572Z" fill="#7831F7"/>
<path d="M7.86435 80.1167C7.86821 80.1326 7.86899 80.1498 7.87208 80.1656C7.88483 80.3017 7.92272 80.4256 7.98803 80.5355C8.03788 80.6604 8.11166 80.7619 8.20865 80.842C8.27511 80.8872 8.34197 80.932 8.4096 80.9757C8.54948 81.0405 8.69437 81.0596 8.84315 81.034C8.85629 81.0335 8.87138 81.0303 8.88452 81.0293C8.95755 81.0037 9.03213 80.9771 9.10594 80.9534C9.17279 80.9059 9.23888 80.8584 9.30651 80.8108C9.40775 80.7223 9.48308 80.6101 9.53293 80.475C9.58085 80.3962 9.60945 80.3096 9.61911 80.2122C9.64732 80.1232 9.65503 80.0315 9.64421 79.9364C9.65155 79.8419 9.64076 79.752 9.61062 79.6658C9.59826 79.5721 9.56887 79.4855 9.52057 79.41C9.46724 79.2805 9.39034 79.172 9.28755 79.0886C9.21683 79.0411 9.14688 78.9935 9.07655 78.9474C9.00158 78.926 8.92587 78.9041 8.85013 78.8822C8.774 78.8827 8.69708 78.885 8.62173 78.8855C8.54715 78.9111 8.47296 78.9362 8.39993 78.9614C8.33346 79.0089 8.26622 79.0564 8.19898 79.1035C8.09812 79.192 8.02279 79.3047 7.97256 79.4394C7.92425 79.5186 7.89567 79.6057 7.88755 79.7035C7.85007 79.8363 7.84271 79.9742 7.86435 80.1167Z" fill="#7831F7"/>
<path d="M77.9946 61.1068C70.3286 61.4329 62.9989 66.097 56.575 70.7793C50.6178 75.1215 44.4563 80.4122 42.6478 89.0165C41.795 93.0681 41.7617 98.6439 44.0131 102.082C44.4076 102.686 45.1492 102.233 45.0997 101.521C44.9602 99.5336 44.3883 97.6241 44.1881 95.6414C44.0007 93.7943 44.066 91.9263 44.3743 90.1029C44.9389 86.7674 46.4039 83.7081 48.1733 81.0961C50.5456 77.5938 53.7262 75.1411 56.8764 72.7746C59.9438 70.47 63.0986 68.3676 66.3821 66.5442C70.1517 64.4502 74.0584 63.0881 78.1109 62.0548C78.621 61.9253 78.4988 61.0868 77.9946 61.1068Z" fill="white"/>
<path d="M75.4885 126.022C77.1393 126.327 78.8411 125.797 80.3984 125.145C81.1716 124.823 81.924 124.431 82.6474 123.975C83.0214 123.737 83.3974 123.493 83.7425 123.195C84.1146 122.874 84.3531 122.507 84.5753 122.039C84.658 121.863 84.5726 121.58 84.3716 121.63C83.9949 121.724 83.6675 121.814 83.3163 122.033C82.9631 122.252 82.6284 122.512 82.2795 122.741C81.5789 123.199 80.8517 123.598 80.1047 123.929C78.5992 124.599 77.0222 124.841 75.4765 125.318C75.1623 125.416 75.1411 125.958 75.4885 126.022Z" fill="#7831F7"/>
<path d="M86.3528 120.737C86.6291 120.561 86.9057 120.384 87.1809 120.202C87.2384 120.166 87.2949 120.114 87.3161 120.035C87.3332 119.972 87.3366 119.909 87.3215 119.846C87.2891 119.707 87.1693 119.597 87.0464 119.626C86.7454 119.701 86.4455 119.778 86.1468 119.856C86.0417 119.883 85.9609 119.938 85.8948 120.039C85.8195 120.15 85.806 120.304 85.8365 120.438C85.8662 120.561 85.9254 120.653 86.0189 120.714C86.1155 120.779 86.2481 120.805 86.3528 120.737Z" fill="#7831F7"/>
<path d="M67.112 21.6601C67.2005 21.4579 67.2971 21.2632 67.3775 21.0535C67.7091 20.1852 67.9861 19.2884 68.238 18.3819C68.3675 17.9114 68.4892 17.4376 68.6129 16.9652C63.912 20.7344 60.5876 24.3457 57.5221 29.4887C53.7088 35.8844 52.1226 40.8313 52.1226 40.8313L54.2131 41.969C54.2131 41.969 58.6393 29.076 67.112 21.6601Z" fill="#7831F7"/>
<path d="M61.0065 28.682L58.9044 27.3114L51.8447 22.7274L53.9944 19.8242L60.7793 24.7017L62.8494 26.1994L61.0065 28.682Z" fill="#7831F7"/>
<path d="M93.1196 79.0942C93.1196 79.0942 108.885 63.7271 112.527 52.5457C118.088 35.4665 112.809 15.8578 99.8125 6.21327C88.6143 -2.09616 73.6101 -1.8432 62.9563 7.65788C58.0391 12.0444 53.5079 17.0951 49.6687 22.847C47.6914 25.8108 45.8999 28.9576 44.3438 32.2661C44.047 32.896 41.2713 39.4533 41.1538 40.4404C41.1538 40.4404 43.8488 40.5415 43.858 40.5168C44.3345 39.3238 46.8235 34.2646 47.2331 33.4666C54.8163 18.6842 66.3793 5.09149 81.623 4.11972C89.219 3.63477 96.7218 6.52446 102.337 12.8028C112.791 24.4892 114.046 37.7087 109.475 50.4023C104.904 63.0944 91.0039 77.0076 91.0039 77.0076L93.1196 79.0942Z" fill="#7831F7"/>
<path d="M49.3751 78.3436C49.5653 78.0716 49.7751 77.8209 49.9764 77.5628C48.5053 77.1762 47.0856 76.3838 45.7686 75.1576C44.2276 73.72 42.6301 71.8151 41.853 69.62C41.1481 67.6262 41.2196 65.3137 41.7645 63.2746C42.9659 58.7722 46.5384 55.6561 50.1967 54.3577C53.9071 53.0436 57.9209 53.87 60.932 56.8561C63.2733 59.1765 64.3754 63.0715 63.9701 66.6861C64.3078 66.5584 64.649 66.4429 64.9926 66.347C65.4493 63.3706 64.8476 60.207 63.2768 57.6299C60.5521 53.1614 55.8864 51.2789 51.4194 52.1859C46.9917 53.0836 42.8917 56.4024 40.6404 61.1042C39.5827 63.3133 39.1994 66.0334 39.6152 68.5355C40.0724 71.2934 41.5145 73.495 43.1506 75.4134C44.5703 77.0783 46.5334 78.6432 48.6193 79.5222C48.8689 79.1039 49.1232 78.7028 49.3751 78.3436Z" fill="#7831F7"/>
<path d="M97.6362 105.254C97.628 105.246 97.6281 105.246 97.6335 105.237C97.1879 101.996 96.1028 98.8184 94.7724 96.2134C93.4427 93.6246 91.6388 91.1779 89.5297 89.4748C87.2873 87.6831 84.6836 87.2638 82.0485 87.4842C76.707 87.9272 71.45 90.2164 66.9802 93.7439C64.7007 95.5425 62.3675 97.7129 60.8504 100.487C59.3885 103.169 59.113 106.19 59.6567 109.294C60.2858 112.925 61.566 116.489 63.0561 119.731C63.8027 121.36 64.6304 122.933 65.5431 124.444C65.7889 124.847 66.0277 125.258 66.2886 125.675C66.9772 125.966 67.7341 126.149 68.5279 126.251C68.2272 125.824 67.9251 125.399 67.6206 124.957C66.765 123.697 65.9705 122.377 65.2409 121.006C63.8432 118.396 62.6948 115.589 61.8037 112.67C60.9419 109.835 60.1328 106.593 60.93 103.598C61.7434 100.522 63.9317 98.2622 65.9964 96.3731C69.9631 92.7483 74.6682 90.3054 79.5731 89.3155C81.9137 88.8487 84.4366 88.5431 86.7417 89.4301C89.2171 90.3846 91.2466 92.6929 92.8008 95.1442C94.3713 97.61 95.4981 100.47 96.138 103.475C96.5364 105.345 96.6631 107.197 96.6906 109.063C96.6848 109.071 96.6921 109.077 96.6921 109.077L97.6362 105.254Z" fill="#7831F7"/>
<path d="M55.9533 110.121C54.9385 110.64 53.9315 111.135 52.8507 111.539C51.2806 112.127 49.6947 112.567 48.0605 112.812C44.7701 113.3 41.4182 113.057 38.1873 112.16C30.802 110.11 24.1257 104.757 18.8669 98.3003C16.8621 95.8383 15.0347 93.1713 13.3352 90.3901C13.3274 90.3855 13.2969 90.3766 13.2784 90.3692C13.2652 90.3654 13.2517 90.3626 13.2463 90.3617C13.191 90.3519 13.1361 90.3417 13.0817 90.3361C13.0573 90.3342 13.0079 90.3342 12.9866 90.3342C12.8931 90.3408 12.7984 90.3505 12.7057 90.3724C12.6604 90.3822 12.497 90.4404 12.6157 90.3953C12.5666 90.4153 12.5183 90.4325 12.4696 90.4535C12.3648 90.5001 12.2624 90.5555 12.1639 90.6175C12.1175 90.6482 12.0669 90.685 12.1473 90.6272C12.1249 90.6436 12.1013 90.6608 12.0793 90.6771C12.0325 90.7125 11.9846 90.7526 11.9386 90.7936C11.8455 90.8765 11.7578 90.9636 11.6755 91.06C11.6596 91.0773 11.6461 91.0945 11.6322 91.1117C11.6275 91.1173 11.6295 91.1136 11.6183 91.128C11.5812 91.1798 11.5433 91.2319 11.5081 91.2855C11.4494 91.3731 11.4015 91.4695 11.3501 91.5632C18.3641 106.642 32.7322 117.953 47.2034 116.279C50.5074 115.897 54.0706 114.831 56.9947 112.73C56.623 111.864 56.2775 110.994 55.9533 110.121Z" fill="white"/>
<path d="M81.6966 100.082C82.3774 101.274 82.9795 102.532 83.5309 103.815C83.7987 104.441 84.0201 105.094 84.291 105.719C84.5515 106.314 84.8969 107.103 85.3819 107.473C85.511 107.571 85.7266 107.544 85.7769 107.336C85.9372 106.661 85.744 105.862 85.555 105.22C85.3371 104.481 84.96 103.786 84.6276 103.116C83.9761 101.803 83.2002 100.603 82.347 99.4705C81.9903 98.9972 81.3944 99.553 81.6966 100.082Z" fill="#7831F7"/>
<path d="M79.2495 105.551C79.4014 105.737 79.5436 105.935 79.675 106.143C79.7407 106.246 79.8045 106.352 79.864 106.462C79.8941 106.515 79.9231 106.572 79.9513 106.626C79.9668 106.655 79.9811 106.683 79.9946 106.711C79.9537 106.627 79.9482 106.619 79.9807 106.685C80.085 106.914 80.1754 107.149 80.274 107.384C80.3207 107.492 80.3617 107.558 80.4278 107.64C80.468 107.693 80.5097 107.742 80.5526 107.79C80.599 107.826 80.6461 107.859 80.6979 107.882C80.5874 107.766 80.5607 107.744 80.6171 107.817C80.6334 107.841 80.65 107.865 80.6654 107.888C80.6983 107.934 80.7292 107.981 80.7613 108.031C80.9217 108.278 81.2729 108.165 81.2988 107.846C81.3031 107.787 81.3077 107.726 81.3112 107.667C81.3127 107.637 81.3177 107.607 81.3154 107.578C81.3235 107.507 81.3135 107.517 81.2868 107.61C81.247 107.709 81.247 107.712 81.288 107.618C81.3811 107.414 81.3896 107.153 81.3371 106.93C81.2652 106.623 81.1272 106.338 80.9939 106.066C80.7524 105.574 80.4695 105.122 80.1314 104.72C80.0197 104.588 79.915 104.487 79.7519 104.466C79.6182 104.447 79.4497 104.497 79.3462 104.604C79.1359 104.821 79.0297 105.282 79.2495 105.551Z" fill="#7831F7"/>
<path d="M48.8007 51.101C48.7926 51.0572 48.7856 51.0144 48.7767 50.9706C48.8038 51.1122 48.7674 50.8574 48.7574 50.8145C48.733 50.7107 48.6979 50.6152 48.665 50.5164C48.6082 50.3422 48.5502 50.1717 48.49 50.0012C48.432 49.8344 48.3806 49.6676 48.3369 49.4948C48.3126 49.3997 48.3192 49.4272 48.3377 49.5083C48.3157 49.4132 48.296 49.3173 48.2701 49.2251C48.2438 49.1361 48.2167 49.0494 48.1943 48.9595C48.1831 48.9199 48.1696 48.8785 48.1631 48.837C48.192 49.0299 48.17 48.8594 48.1611 48.823C48.1449 48.7396 48.1287 48.6572 48.1124 48.5724C48.0858 48.4392 48.0657 48.3036 48.0231 48.176C47.9988 48.1037 47.9826 48.1042 48.0097 48.1783C47.9954 48.1387 47.9911 48.0702 47.9853 48.0278C47.9528 47.8112 47.891 47.6188 47.835 47.4115C47.8118 47.3267 47.8152 47.336 47.7959 47.2456C47.7743 47.1404 47.7503 47.0346 47.7252 46.9289C47.6738 46.7071 47.3767 46.6778 47.282 46.8664C47.1062 47.2107 46.9412 47.6453 46.9273 48.052C46.918 48.3013 46.8905 48.5365 46.9141 48.7876C46.9338 48.9819 46.9686 49.1738 47.01 49.3634C47.0629 49.6005 47.1154 49.8307 47.2062 50.051C47.2959 50.2644 47.3968 50.4726 47.5027 50.6748C47.6101 50.8779 47.7318 51.0391 47.8759 51.2054C47.9339 51.272 47.9915 51.3465 48.058 51.3997C48.0935 51.4234 48.1294 51.4467 48.1634 51.47C48.2867 51.4998 48.3169 51.5105 48.2554 51.4989C48.2218 51.4924 48.2252 51.4975 48.2666 51.5152C48.289 51.5282 48.3111 51.5403 48.3339 51.5524C48.5607 51.6736 48.8594 51.4029 48.8007 51.101Z" fill="#7831F7"/>
<path d="M54.6929 51.6834C54.8552 50.6977 54.98 49.7059 55.0635 48.7076C55.1466 47.7283 55.0129 46.6932 54.9062 45.7205C54.8869 45.5477 54.6775 45.5593 54.6578 45.7256C54.5442 46.7016 54.332 47.6697 54.2578 48.6475C54.1824 49.6318 54.0681 50.6097 53.917 51.5805C53.8772 51.8302 54.0653 52.0729 54.2624 52.0995C54.4877 52.1297 54.6516 51.9331 54.6929 51.6834Z" fill="#7831F7"/>
<path d="M68.8523 81.0848C68.8384 80.9977 68.8442 80.9199 68.8338 80.83C68.8218 80.7368 68.7866 80.638 68.7634 80.5477C68.7206 80.3823 68.6831 80.2192 68.6185 80.0636C68.4995 79.7785 68.3817 79.4911 68.2573 79.2083C68.1263 78.9065 67.9369 78.6036 67.7363 78.36C67.6741 78.2827 67.6092 78.1858 67.5381 78.1224C67.4573 78.0502 67.4639 78.0726 67.4079 78.0153C67.3457 77.9519 67.2997 77.889 67.2259 77.8415C67.1706 77.8056 67.1192 77.766 67.0659 77.7232C66.9616 77.6379 66.8352 77.7362 66.8445 77.883C66.8549 78.0483 66.8468 78.1993 66.8781 78.3623C66.894 78.4448 66.8858 78.4974 66.8963 78.5864C66.9055 78.6684 66.9333 78.7546 66.9523 78.8342C67.0326 79.1929 67.1559 79.5633 67.3213 79.8764C67.4635 80.1456 67.6088 80.4126 67.7545 80.679C67.8275 80.8141 67.918 80.9269 68.0084 81.0452C68.0698 81.1248 68.1294 81.2199 68.2005 81.286C68.2596 81.3401 68.3187 81.3741 68.3724 81.4309C68.5706 81.6363 68.8995 81.3839 68.8523 81.0848Z" fill="#7831F7"/>
<path d="M74.9681 78.6453C74.9113 78.0471 74.9291 77.4923 74.9229 76.8946C74.9194 76.5978 74.9214 76.2978 74.9349 76.0006C74.9465 75.6969 75.0126 75.4025 75.0296 75.0997C75.0385 74.9469 74.8553 74.8299 74.7768 74.9818C74.6416 75.2487 74.5705 75.5492 74.4804 75.8413C74.3811 76.1576 74.3038 76.4767 74.247 76.8065C74.1358 77.4499 74.1725 78.1263 74.2401 78.7757C74.2648 79.0142 74.465 79.1847 74.6582 79.1498C74.8607 79.1125 74.9913 78.8833 74.9681 78.6453Z" fill="#7831F7"/>
<path d="M54.3047 93.7863C53.894 93.3097 53.4009 92.8811 52.8626 92.65C52.5492 92.5154 52.2231 92.4809 51.8931 92.5089C51.7628 92.5205 51.6141 92.5727 51.529 92.5979C51.3722 92.6426 51.2342 92.6752 51.097 92.7791C50.9648 92.8802 50.9915 93.1285 51.1036 93.2305C51.2103 93.3288 51.3324 93.3679 51.4506 93.4424C51.4997 93.4653 51.5086 93.4709 51.4749 93.4634C51.5174 93.5044 51.5631 93.5398 51.6145 93.5626C51.6709 93.598 51.7296 93.6293 51.7857 93.6637C52.0032 93.7928 52.2207 93.9176 52.4495 94.0187C52.6759 94.117 52.9074 94.2134 53.1281 94.3308C53.2452 94.3928 53.3619 94.4599 53.4735 94.5339C53.3707 94.4659 53.5454 94.5866 53.562 94.5996C53.6169 94.6406 53.6718 94.6835 53.7263 94.7268C53.9377 94.8959 54.2537 94.8768 54.4056 94.6038C54.569 94.3141 54.5022 94.0131 54.3047 93.7863Z" fill="#7831F7"/>
</svg>
